<svg width="160" height="62" viewBox="0 0 160 62" fill="none" xmlns="http://www.w3.org/2000/svg">
<path fill-rule="evenodd" clip-rule="evenodd" d="M80.8681 14.6542C82.7875 16.7656 85.7445 18.178 88.6062 19.1053C90.7543 19.8016 92.9504 20.5063 94.8161 21.5172C96.4593 22.4083 97.845 23.538 98.7129 25.1104C99.0628 25.7426 99.3278 26.447 99.4931 27.2353C99.5766 26.7556 99.6321 26.2969 99.6605 25.8574C99.9518 21.392 97.4894 18.9257 94.2952 17.0941C92.9536 16.3254 91.4818 15.6679 90.0314 15.0211C89.5183 14.7932 89.0073 14.5652 88.5063 14.3355C85.9867 13.1774 83.7024 11.9418 82.498 10.059C80.2351 6.52415 82.764 2.44598 86.3515 1.43078C90.8037 0.170955 94.554 2.48827 97.0335 6.10455C97.4662 6.70834 97.8602 7.41416 98.2222 8.21528C98.3278 8.44817 98.4355 8.70634 98.5454 8.98654H99.9677L99.8237 0.220396H99.1371C98.6041 1.02757 98.1141 1.60505 97.6757 1.96808C97.2312 2.33005 96.7857 2.50819 96.322 2.50819C95.8775 2.50819 95.1024 2.22799 93.9958 1.66866C90.85 0.109449 87.8453 -0.365275 84.661 0.958235C82.6595 1.78957 80.9861 3.22684 79.9308 4.98803C79.3078 3.28942 78.2848 1.81695 76.6206 0.922668C74.1703 -0.405789 70.8876 -0.13555 68.3384 0.702206L68.64 1.36537C71.3563 0.613287 73.8962 1.98834 75.0038 4.57271C75.7097 6.21764 75.6009 8.12746 74.7983 9.46123C73.1402 12.2198 67.9857 12.6391 64.735 14.5645C62.7021 15.7689 61.032 17.3765 60.3685 19.5092C59.0976 23.5966 61.57 27.7271 65.4152 29.3247C68.3232 30.5333 71.1145 30.0163 73.988 28.5918C77.1772 26.9793 79.2402 29.607 82.3438 28.6807C84.1612 28.1374 85.7467 26.7876 86.1691 24.8586L85.3858 24.557C85.0049 25.9449 83.482 26.6344 82.2531 25.7315C80.9954 24.806 80.8681 23.0131 80.8681 21.5848V14.6542ZM75.4466 15.7106V22.5374C75.4466 26.7727 72.0881 30.2482 67.0068 28.8099C63.7302 27.8825 61.4199 24.1582 63.4862 20.9295C64.5867 19.2099 66.6733 18.0813 68.9746 17.0238C69.4322 16.8133 69.8988 16.6056 70.3674 16.3969C71.692 15.8063 73.0354 15.2064 74.261 14.5031C77.3073 12.7572 78.8132 10.4711 79.5155 7.11373C79.9742 10.8288 78.7709 13.2329 75.4466 15.7106Z" fill="url(#paint0_linear_592_465)"/>
<path fill-rule="evenodd" clip-rule="evenodd" d="M65.1062 9.71831C66.1285 9.61127 66.9669 8.96413 67.3652 8.02184C67.751 7.08523 67.617 6.03092 67.0132 5.21987C66.6434 4.75799 66.2544 4.50801 65.694 4.36895C65.3149 4.27434 64.954 4.1645 65.1154 3.75416C65.2182 3.49422 65.4874 3.18166 65.9286 2.8108L65.5681 2.14835C64.4057 2.93382 63.2447 3.92662 62.52 5.14627C62.162 5.74792 61.9515 6.40893 62.024 7.11762C62.1862 8.7092 63.525 9.88261 65.1062 9.71831Z" fill="url(#paint1_linear_592_465)"/>
<path d="M19 56.06L16.02 55.94C15.8867 55.9267 15.7533 55.92 15.62 55.92C15.5 55.92 15.38 55.92 15.26 55.92C14.74 55.92 14.2133 55.9333 13.68 55.96C13.16 55.9867 12.6267 56 12.08 56C12.0133 56 11.9533 55.9733 11.9 55.92C11.8467 55.8667 11.82 55.8133 11.82 55.76C11.82 55.6933 11.8667 55.66 11.96 55.66C12.1867 55.6733 12.4 55.6867 12.6 55.7C12.8 55.7 12.9933 55.7 13.18 55.7C13.7133 55.7 14.1933 55.62 14.62 55.46C15.0467 55.2867 15.4533 54.8933 15.84 54.28C16.04 53.96 16.2933 53.5267 16.6 52.98C16.92 52.4333 17.2467 51.8467 17.58 51.22C17.3667 51.2067 17.1733 51.2 17 51.2C16.8267 51.2 16.6533 51.2 16.48 51.2C15.9067 51.2 15.48 51.2133 15.2 51.24C14.92 51.2667 14.7267 51.28 14.62 51.28C14.4867 51.28 14.42 51.2467 14.42 51.18C14.42 51.1267 14.5067 51.0533 14.68 50.96C14.8667 50.8533 15.0067 50.7933 15.1 50.78C15.46 50.7133 15.88 50.6667 16.36 50.64C16.84 50.6133 17.3667 50.5867 17.94 50.56C18.3133 49.8533 18.6733 49.16 19.02 48.48C19.38 47.7867 19.6933 47.1667 19.96 46.62C20.2267 46.0733 20.4133 45.6733 20.52 45.42C20.5867 45.2733 20.64 45.12 20.68 44.96C20.72 44.7867 20.74 44.6333 20.74 44.5C20.74 44.2467 20.66 44.04 20.5 43.88C20.3533 43.7067 20.0733 43.6133 19.66 43.6C19.4067 43.6 19.1533 43.6133 18.9 43.64C18.6467 43.6533 18.3933 43.66 18.14 43.66H18.1C18.0067 43.66 17.96 43.6 17.96 43.48C17.96 43.44 17.9733 43.4 18 43.36C18.0267 43.32 18.0667 43.3067 18.12 43.32C18.6533 43.3467 19.12 43.3667 19.52 43.38C19.9333 43.3933 20.2867 43.4 20.58 43.4C20.7933 43.4 20.98 43.4 21.14 43.4C21.3 43.3867 21.4333 43.38 21.54 43.38C21.8467 43.3667 22.1467 43.36 22.44 43.36C22.7467 43.36 23.0533 43.3533 23.36 43.34C23.52 43.34 23.6 43.4333 23.6 43.62C23.6 43.7933 23.62 44.0267 23.66 44.32C23.9 45.88 24.1467 47.3933 24.4 48.86C24.6667 50.3267 24.9933 51.8267 25.38 53.36C25.5667 54.0533 25.78 54.5667 26.02 54.9C26.26 55.2333 26.5133 55.4533 26.78 55.56C27.0467 55.6533 27.2933 55.7 27.52 55.7C27.6267 55.7 27.7267 55.6933 27.82 55.68C27.9133 55.6667 27.9867 55.66 28.04 55.66C28.12 55.66 28.16 55.7067 28.16 55.8C28.16 55.84 28.14 55.8867 28.1 55.94C28.0733 55.98 28.0333 56 27.98 56C27.8467 56 27.6267 56 27.32 56C27.0133 55.9867 26.6933 55.98 26.36 55.98C26.04 55.9667 25.7933 55.96 25.62 55.96H23.62C23.22 55.96 22.9067 55.9667 22.68 55.98C22.4667 55.98 22.3067 55.9867 22.2 56C22.0933 56 21.9867 56 21.88 56C21.8267 56 21.76 55.9733 21.68 55.92C21.6133 55.8667 21.58 55.8133 21.58 55.76C21.58 55.7067 21.6133 55.68 21.68 55.68C21.7467 55.68 21.8267 55.6867 21.92 55.7C22.0267 55.7 22.1267 55.7 22.22 55.7C22.7533 55.7 23.1133 55.6133 23.3 55.44C23.4867 55.2667 23.5667 55.0733 23.54 54.86C23.5133 54.5133 23.4467 54.0267 23.34 53.4C23.2333 52.76 23.1067 52.0533 22.96 51.28C22.8133 50.5067 22.66 49.74 22.5 48.98C22.3533 48.22 22.2133 47.5333 22.08 46.92C21.9467 46.3067 21.8333 45.8467 21.74 45.54C21.2733 46.38 20.8133 47.2133 20.36 48.04C19.9067 48.8533 19.4667 49.6733 19.04 50.5L20.18 50.44C20.5 50.4267 20.8333 50.4 21.18 50.36C21.5267 50.3067 21.8333 50.2467 22.1 50.18C22.3667 50.1133 22.5333 50.0533 22.6 50C22.6267 49.9733 22.6533 49.96 22.68 49.96C22.72 49.96 22.72 50.0133 22.68 50.12C22.5867 50.32 22.4133 50.5133 22.16 50.7C21.9067 50.8733 21.6933 51 21.52 51.08C21.28 51.2 21.0267 51.26 20.76 51.26C20.5067 51.26 20.2467 51.26 19.98 51.26C19.7267 51.26 19.4933 51.26 19.28 51.26C19.0667 51.2467 18.8667 51.24 18.68 51.24C18.5067 51.5867 18.3333 51.94 18.16 52.3C17.9867 52.6467 17.82 53 17.66 53.36C17.3933 53.9467 17.26 54.42 17.26 54.78C17.26 55.1933 17.4 55.46 17.68 55.58C17.9733 55.6867 18.28 55.74 18.6 55.74C18.7067 55.74 18.8133 55.74 18.92 55.74C19.0267 55.7267 19.1267 55.72 19.22 55.72H19.28C19.32 55.72 19.34 55.7333 19.34 55.76C19.34 55.8133 19.3 55.88 19.22 55.96C19.14 56.04 19.0667 56.0733 19 56.06ZM29.5205 56.12C29.2671 56.12 29.0538 56.04 28.8805 55.88C28.7205 55.72 28.5871 55.5333 28.4805 55.32C28.3871 55.0933 28.3205 54.8733 28.2805 54.66C28.2405 54.4333 28.2205 54.26 28.2205 54.14C28.2205 53.5533 28.3471 53.06 28.6005 52.66C28.8671 52.26 29.2071 51.94 29.6205 51.7C30.0471 51.4467 30.5071 51.26 31.0005 51.14C31.5071 51.0067 32.0071 50.92 32.5005 50.88C33.0071 50.8267 33.4538 50.8067 33.8405 50.82C33.8405 50.82 33.8538 50.6933 33.8805 50.44C33.9205 50.1867 33.9471 49.9667 33.9605 49.78C33.9738 49.54 33.9671 49.2733 33.9405 48.98C33.9138 48.6867 33.8338 48.4333 33.7005 48.22C33.6738 48.18 33.6271 48.1133 33.5605 48.02C33.4938 47.9133 33.5071 47.84 33.6005 47.8C33.6138 47.7867 33.6405 47.78 33.6805 47.78C33.7605 47.78 33.8471 47.8533 33.9405 48C34.0471 48.1467 34.1138 48.3333 34.1405 48.56C34.1805 48.7867 34.2005 49.0267 34.2005 49.28C34.2005 49.3733 34.2005 49.46 34.2005 49.54C34.2005 49.62 34.1938 49.7067 34.1805 49.8C34.1671 50.0133 34.1405 50.24 34.1005 50.48C34.0738 50.7067 34.0605 50.82 34.0605 50.82C34.0871 50.8333 34.1205 50.84 34.1605 50.84C34.3205 50.84 34.4071 50.7733 34.4205 50.64C34.4471 50.4533 34.4738 50.2 34.5005 49.88C34.5405 49.5467 34.5605 49.2067 34.5605 48.86C34.5605 48.3667 34.4938 47.9267 34.3605 47.54C34.2405 47.14 33.9805 46.94 33.5805 46.94C33.3271 46.94 33.0871 47 32.8605 47.12C32.6338 47.2267 32.4405 47.3533 32.2805 47.5C32.0405 47.7267 31.8671 47.9933 31.7605 48.3C31.6671 48.5933 31.5871 48.8733 31.5205 49.14C31.4671 49.4067 31.3671 49.6067 31.2205 49.74C31.0471 49.9133 30.8871 50.0267 30.7405 50.08C30.6071 50.1333 30.4338 50.2267 30.2205 50.36C30.1538 50.4 30.0538 50.4533 29.9205 50.52C29.8005 50.5733 29.6871 50.6 29.5805 50.6C29.4871 50.6 29.4071 50.56 29.3405 50.48C29.2738 50.4 29.2538 50.2533 29.2805 50.04C29.3205 49.7467 29.3605 49.4333 29.4005 49.1C29.4405 48.7533 29.4871 48.5333 29.5405 48.44C29.7138 48.16 29.9605 47.9133 30.2805 47.7C30.6138 47.4867 30.9805 47.3067 31.3805 47.16C31.7805 47 32.1738 46.88 32.5605 46.8C32.9471 46.72 33.2871 46.6733 33.5805 46.66C34.1538 46.62 34.6871 46.68 35.1805 46.84C35.6871 47 36.0938 47.2467 36.4005 47.58C36.7071 47.9133 36.8605 48.3333 36.8605 48.84C36.8605 49.0133 36.8405 49.2 36.8005 49.4C36.6671 49.9733 36.5538 50.5533 36.4605 51.14C36.3671 51.7133 36.2938 52.2933 36.2405 52.88C36.2271 53.0133 36.2005 53.2133 36.1605 53.48C36.1338 53.7467 36.1205 54.02 36.1205 54.3C36.1205 54.6067 36.1605 54.8867 36.2405 55.14C36.3205 55.3933 36.4738 55.54 36.7005 55.58C36.8471 55.6067 37.0338 55.6267 37.2605 55.64C37.4871 55.6533 37.7005 55.66 37.9005 55.66C38.1138 55.66 38.2738 55.66 38.3805 55.66H38.4005C38.4671 55.66 38.5005 55.6867 38.5005 55.74C38.5005 55.7933 38.4671 55.8533 38.4005 55.92C38.3338 55.9733 38.2605 56 38.1805 56C37.7138 56 37.2471 55.9933 36.7805 55.98C36.3138 55.9667 35.8471 55.96 35.3805 55.96C35.1538 55.96 34.9205 55.9667 34.6805 55.98C34.4538 55.9933 34.2205 56 33.9805 56H33.7805C33.6205 56 33.5405 55.96 33.5405 55.88C33.5405 55.84 33.5471 55.7867 33.5605 55.72C33.5871 55.64 33.6138 55.5467 33.6405 55.44C33.7205 55.1467 33.8005 54.7867 33.8805 54.36C33.9605 53.9333 34.0338 53.5067 34.1005 53.08C34.1805 52.64 34.2405 52.26 34.2805 51.94C34.3205 51.6067 34.3405 51.3933 34.3405 51.3V51.26C34.3405 51.1667 34.3071 51.1067 34.2405 51.08C34.1738 51.0533 34.1071 51.0333 34.0405 51.02C33.9738 51.5933 33.8538 52.18 33.6805 52.78C33.5205 53.3667 33.3205 53.9133 33.0805 54.42C32.8538 54.9267 32.6138 55.34 32.3605 55.66C32.1071 55.9667 31.8605 56.12 31.6205 56.12H29.5205ZM31.6605 54.86C32.0605 54.86 32.3938 54.7067 32.6605 54.4C32.8738 54.16 33.0538 53.8667 33.2005 53.52C33.3471 53.16 33.4605 52.8 33.5405 52.44C33.6338 52.08 33.7005 51.7667 33.7405 51.5C33.7938 51.2333 33.8271 51.0667 33.8405 51C33.7605 50.9867 33.6805 50.98 33.6005 50.98C33.5338 50.98 33.4671 50.98 33.4005 50.98C33.0538 50.98 32.7271 51.0333 32.4205 51.14C32.1271 51.2333 31.8671 51.36 31.6405 51.52C31.3471 51.7333 31.0938 52.0333 30.8805 52.42C30.6671 52.7933 30.5605 53.18 30.5605 53.58C30.5605 53.82 30.6071 54.04 30.7005 54.24C30.7938 54.4533 30.9271 54.6133 31.1005 54.72C31.2738 54.8133 31.4605 54.86 31.6605 54.86ZM40.9864 56.38C40.5997 56.38 40.2397 56.3267 39.9064 56.22C39.5864 56.1133 39.3131 55.94 39.0864 55.7C38.9931 55.5933 38.8664 55.4533 38.7064 55.28C38.5464 55.1067 38.4664 54.9333 38.4664 54.76C38.4664 54.6667 38.4931 54.5867 38.5464 54.52C38.7331 54.2667 38.9197 54.0267 39.1064 53.8C39.3064 53.56 39.4931 53.1867 39.6664 52.68C39.7064 52.5733 39.7397 52.46 39.7664 52.34C39.7931 52.2067 39.8531 52.1667 39.9464 52.22C39.9864 52.2333 39.9864 52.3333 39.9464 52.52C39.9197 52.7067 39.9064 52.86 39.9064 52.98C39.9064 53.42 40.0197 53.8267 40.2464 54.2C40.4731 54.56 40.7731 54.8533 41.1464 55.08C41.5197 55.3067 41.9264 55.42 42.3664 55.42C42.7131 55.42 43.0464 55.3267 43.3664 55.14C43.6864 54.9533 43.9464 54.6933 44.1464 54.36C44.3597 54.0267 44.4664 53.64 44.4664 53.2C44.4664 52.8667 44.3664 52.6067 44.1664 52.42C43.9664 52.22 43.7131 52.0733 43.4064 51.98C43.1131 51.8867 42.7997 51.82 42.4664 51.78C42.1464 51.74 41.8664 51.7133 41.6264 51.7C40.8531 51.6333 40.2597 51.44 39.8464 51.12C39.4464 50.7867 39.2464 50.4267 39.2464 50.04C39.2464 49.6267 39.3997 49.22 39.7064 48.82C40.0264 48.42 40.4331 48.06 40.9264 47.74C41.4331 47.4067 41.9864 47.1467 42.5864 46.96C43.1997 46.76 43.7931 46.66 44.3664 46.66C44.8064 46.66 45.2197 46.7267 45.6064 46.86C45.9931 46.98 46.3264 47.1933 46.6064 47.5C46.7664 47.66 46.8464 47.8133 46.8464 47.96C46.8464 48.0667 46.8131 48.1733 46.7464 48.28C46.6931 48.3867 46.6464 48.5067 46.6064 48.64C46.6064 48.64 46.5464 48.7067 46.4264 48.84C46.3064 48.9733 46.1664 49.1467 46.0064 49.36C45.8597 49.5733 45.7264 49.8067 45.6064 50.06C45.5531 50.18 45.4997 50.24 45.4464 50.24C45.4064 50.24 45.3864 50.2067 45.3864 50.14C45.3864 50.0867 45.4064 50.02 45.4464 49.94C45.4597 49.9 45.4731 49.8333 45.4864 49.74C45.4997 49.6333 45.5064 49.5133 45.5064 49.38C45.5064 49.1 45.4464 48.7933 45.3264 48.46C45.2064 48.1133 44.9397 47.84 44.5264 47.64C44.2331 47.4933 43.9197 47.42 43.5864 47.42C43.2531 47.42 42.9264 47.4933 42.6064 47.64C42.2997 47.7733 42.0397 47.9733 41.8264 48.24C41.6264 48.5067 41.5264 48.8333 41.5264 49.22C41.5264 49.7 41.6664 50.0467 41.9464 50.26C42.2397 50.4733 42.5931 50.6067 43.0064 50.66C43.4197 50.7133 43.7997 50.74 44.1464 50.74C44.5864 50.74 44.9931 50.7667 45.3664 50.82C45.7531 50.8733 46.0597 50.9933 46.2864 51.18C46.5264 51.3667 46.6464 51.6667 46.6464 52.08C46.6464 52.6533 46.4664 53.2 46.1064 53.72C45.7464 54.24 45.2797 54.7 44.7064 55.1C44.1464 55.5 43.5331 55.8133 42.8664 56.04C42.2131 56.2667 41.5864 56.38 40.9864 56.38ZM47.3945 56.02C47.2879 56.02 47.1745 56.0133 47.0545 56C46.9345 56 46.8012 56 46.6545 56H46.6345C46.5945 56 46.5745 55.98 46.5745 55.94C46.5745 55.8867 46.6079 55.8267 46.6745 55.76C46.7412 55.68 46.8012 55.64 46.8545 55.64H47.5745C47.6812 55.64 47.7812 55.64 47.8745 55.64C47.9679 55.64 48.0479 55.6333 48.1145 55.62C48.3945 55.5667 48.5745 55.4467 48.6545 55.26C48.7479 55.06 48.8145 54.8333 48.8545 54.58C48.9612 53.9267 49.0679 53.1733 49.1745 52.32C49.2812 51.4667 49.3812 50.5867 49.4745 49.68C49.5679 48.7733 49.6479 47.9133 49.7145 47.1C49.7812 46.2867 49.8345 45.6 49.8745 45.04C49.9145 44.5333 49.8679 44.1933 49.7345 44.02C49.6145 43.8333 49.4079 43.7333 49.1145 43.72C48.8345 43.6933 48.4679 43.68 48.0145 43.68C47.8412 43.68 47.7545 43.64 47.7545 43.56C47.7545 43.5067 47.7945 43.4533 47.8745 43.4C47.9545 43.3467 48.0345 43.32 48.1145 43.32C48.1945 43.32 48.3212 43.3267 48.4945 43.34C48.6679 43.34 48.8412 43.3467 49.0145 43.36C49.1879 43.36 49.2945 43.36 49.3345 43.36C49.8012 43.3733 50.1945 43.38 50.5145 43.38C50.8479 43.38 51.1479 43.38 51.4145 43.38H52.0745C52.1945 43.38 52.2545 43.4533 52.2545 43.6C52.2545 43.6667 52.2479 43.7467 52.2345 43.84C52.2212 43.92 52.2012 44.0067 52.1745 44.1C52.1212 44.46 52.0745 44.7733 52.0345 45.04C51.9945 45.3067 51.9479 45.62 51.8945 45.98C51.7879 46.6733 51.6745 47.4467 51.5545 48.3C51.4345 49.14 51.3145 49.9933 51.1945 50.86C51.0879 51.7133 50.9945 52.5267 50.9145 53.3C50.8479 54.06 50.8145 54.7 50.8145 55.22V55.28C50.8145 55.4133 50.8412 55.5 50.8945 55.54C50.9479 55.58 50.9879 55.5933 51.0145 55.58C51.0945 55.58 51.1412 55.52 51.1545 55.4C51.1812 55.28 51.2012 55.1667 51.2145 55.06C51.2812 54.62 51.3745 54.04 51.4945 53.32C51.6279 52.5867 51.7545 51.8333 51.8745 51.06C52.0079 50.3 52.2212 49.5933 52.5145 48.94C52.8079 48.2733 53.1945 47.74 53.6745 47.34C54.1679 46.94 54.7545 46.74 55.4345 46.74C56.4345 46.74 56.9345 47.2267 56.9345 48.2C56.9345 48.2667 56.9279 48.34 56.9145 48.42C56.9145 48.5 56.9079 48.5867 56.8945 48.68C56.8012 49.3467 56.6879 50.04 56.5545 50.76C56.4345 51.4667 56.3412 52.1733 56.2745 52.88C56.2612 53.0133 56.2345 53.2133 56.1945 53.48C56.1679 53.7467 56.1545 54.02 56.1545 54.3C56.1545 54.6067 56.1945 54.8867 56.2745 55.14C56.3545 55.38 56.5079 55.52 56.7345 55.56C56.8812 55.5867 57.0679 55.6067 57.2945 55.62C57.5212 55.6333 57.7345 55.6467 57.9345 55.66C58.1479 55.66 58.3079 55.66 58.4145 55.66H58.4345C58.5012 55.66 58.5345 55.6867 58.5345 55.74C58.5345 55.7933 58.5012 55.8533 58.4345 55.92C58.3679 55.9733 58.2945 56 58.2145 56C57.6812 56 57.1479 55.9867 56.6145 55.96C56.0945 55.9333 55.5679 55.92 55.0345 55.92C54.8745 55.92 54.7145 55.92 54.5545 55.92C54.4079 55.92 54.2545 55.9267 54.0945 55.94C54.0412 55.94 53.9879 55.9467 53.9345 55.96C53.8945 55.96 53.8612 55.96 53.8345 55.96C53.6745 55.96 53.5945 55.9067 53.5945 55.8C53.5945 55.76 53.6012 55.7133 53.6145 55.66C53.6412 55.5933 53.6612 55.5133 53.6745 55.42C53.7545 55.1533 53.8412 54.8067 53.9345 54.38C54.0279 53.94 54.1212 53.4733 54.2145 52.98C54.3079 52.4867 54.3879 52.0267 54.4545 51.6C54.4812 51.4267 54.5145 51.1667 54.5545 50.82C54.6079 50.4733 54.6345 50.1267 54.6345 49.78C54.6345 49.4067 54.5879 49.08 54.4945 48.8C54.4012 48.52 54.2212 48.38 53.9545 48.38C53.6212 48.38 53.3279 48.54 53.0745 48.86C52.8212 49.1667 52.6145 49.5533 52.4545 50.02C52.2945 50.4733 52.1745 50.92 52.0945 51.36C52.0545 51.56 52.0012 51.86 51.9345 52.26C51.8679 52.6467 51.8012 53.06 51.7345 53.5C51.6679 53.9267 51.6079 54.3 51.5545 54.62C51.5012 54.94 51.4679 55.1333 51.4545 55.2C51.4412 55.24 51.4345 55.28 51.4345 55.32C51.4345 55.36 51.4345 55.3933 51.4345 55.42C51.4345 55.54 51.4679 55.6133 51.5345 55.64C51.6012 55.6533 51.6945 55.66 51.8145 55.66H52.4945C52.5479 55.66 52.5745 55.68 52.5745 55.72C52.5745 55.7733 52.5412 55.84 52.4745 55.92C52.4212 55.9867 52.3679 56.0133 52.3145 56C51.9145 55.9733 51.5145 55.9533 51.1145 55.94C50.7279 55.9267 50.3412 55.92 49.9545 55.92C49.8345 55.92 49.7145 55.9267 49.5945 55.94C49.4745 55.94 49.3545 55.94 49.2345 55.94C48.9812 55.9533 48.7212 55.9733 48.4545 56C48.1879 56.0133 47.8345 56.02 47.3945 56.02ZM61.305 45.34C61.3717 45.2733 61.425 45.1933 61.465 45.1C61.5183 45.0067 61.5517 44.9467 61.565 44.92C61.7117 44.5733 61.8783 44.2933 62.065 44.08C62.265 43.8667 62.505 43.7533 62.785 43.74C62.9717 43.7267 63.145 43.72 63.305 43.72C63.4783 43.7067 63.6583 43.7 63.845 43.7C63.9383 43.7 64.025 43.7067 64.105 43.72C64.1983 43.72 64.285 43.72 64.365 43.72C64.4183 43.72 64.445 43.74 64.445 43.78C64.445 43.8867 64.365 43.9733 64.205 44.04C64.1117 44.0533 64.0117 44.1533 63.905 44.34C63.7983 44.5133 63.685 44.6933 63.565 44.88C63.4583 45.0533 63.3583 45.16 63.265 45.2C63.185 45.24 63.105 45.2667 63.025 45.28C62.945 45.2933 62.865 45.3 62.785 45.3C62.6783 45.3 62.5583 45.2933 62.425 45.28C62.305 45.2667 62.1917 45.26 62.085 45.26C62.045 45.26 61.965 45.26 61.845 45.26C61.7383 45.26 61.6583 45.2733 61.605 45.3C61.5517 45.3267 61.4717 45.36 61.365 45.4C61.2717 45.44 61.2517 45.42 61.305 45.34ZM58.585 56.02C58.4783 56.02 58.365 56.0133 58.245 56C58.125 56 57.9917 56 57.845 56H57.825C57.785 56 57.765 55.98 57.765 55.94C57.765 55.8867 57.805 55.8267 57.885 55.76C57.9517 55.68 58.0117 55.64 58.065 55.64C58.2383 55.64 58.3917 55.6467 58.525 55.66C58.6583 55.66 58.785 55.66 58.905 55.66C59.2383 55.66 59.4983 55.6133 59.685 55.52C59.8717 55.4133 60.0317 55.1867 60.165 54.84C60.2983 54.48 60.4383 53.9267 60.585 53.18C60.665 52.78 60.7383 52.3467 60.805 51.88C60.8717 51.4 60.9317 50.94 60.985 50.5C61.0383 50.0467 61.0783 49.6467 61.105 49.3C61.1317 48.9533 61.1517 48.7 61.165 48.54C61.205 48.1133 61.145 47.8067 60.985 47.62C60.825 47.4333 60.5983 47.3133 60.305 47.26C60.025 47.2067 59.6983 47.18 59.325 47.18H58.705C58.5317 47.18 58.445 47.1467 58.445 47.08C58.445 47.0133 58.4783 46.96 58.545 46.92C58.625 46.8667 58.6983 46.84 58.765 46.84L60.025 46.86C60.4783 46.8733 60.9183 46.8867 61.345 46.9C61.7717 46.9 62.165 46.9 62.525 46.9C62.6717 46.9 62.8183 46.9 62.965 46.9C63.1117 46.8867 63.2383 46.88 63.345 46.88H63.365C63.485 46.88 63.545 46.94 63.545 47.06C63.545 47.1 63.5383 47.1467 63.525 47.2C63.525 47.24 63.5183 47.2867 63.505 47.34C63.345 48.1933 63.1783 49.1267 63.005 50.14C62.845 51.1533 62.7117 52.0933 62.605 52.96C62.5917 53.12 62.565 53.3333 62.525 53.6C62.4983 53.8533 62.4717 54.0933 62.445 54.32C62.4317 54.5333 62.425 54.6733 62.425 54.74C62.425 55.0067 62.4983 55.2067 62.645 55.34C62.7917 55.46 62.9317 55.5333 63.065 55.56C63.2117 55.5867 63.3983 55.6067 63.625 55.62C63.8517 55.6333 64.065 55.6467 64.265 55.66C64.4783 55.66 64.6383 55.66 64.745 55.66H64.765C64.8317 55.66 64.865 55.6867 64.865 55.74C64.865 55.7933 64.8317 55.8533 64.765 55.92C64.6983 55.9733 64.625 56 64.545 56C63.985 56 63.4383 55.9867 62.905 55.96C62.3717 55.9333 61.8317 55.92 61.285 55.92C61.1517 55.92 61.0117 55.92 60.865 55.92C60.7317 55.92 60.5917 55.9267 60.445 55.94C60.1783 55.9533 59.9117 55.9733 59.645 56C59.3783 56.0133 59.025 56.02 58.585 56.02ZM65.0717 56.02C64.9651 56.02 64.8517 56.0133 64.7317 56C64.6117 56 64.4784 56 64.3317 56H64.3117C64.2717 56 64.2517 55.98 64.2517 55.94C64.2517 55.8867 64.2917 55.8267 64.3717 55.76C64.4384 55.68 64.4984 55.64 64.5517 55.64C64.7117 55.64 64.8584 55.6467 64.9917 55.66C65.1251 55.66 65.2451 55.66 65.3517 55.66C65.6451 55.66 65.8517 55.6133 65.9717 55.52C66.0917 55.4133 66.1851 55.1867 66.2517 54.84C66.3317 54.48 66.4251 53.92 66.5317 53.16C66.6517 52.3067 66.7584 51.3933 66.8517 50.42C66.9584 49.4333 67.0517 48.5 67.1317 47.62H65.6917C65.6384 47.62 65.6317 47.5667 65.6717 47.46C65.7251 47.3533 65.7917 47.2467 65.8717 47.14C65.9651 47.0333 66.0384 46.98 66.0917 46.98H67.1917C67.2184 46.7533 67.2384 46.5333 67.2517 46.32C67.2651 46.1067 67.2784 45.9067 67.2917 45.72C67.3451 45.0933 67.5251 44.5533 67.8317 44.1C68.1517 43.6467 68.6784 43.4067 69.4117 43.38C69.4784 43.38 69.5717 43.3667 69.6917 43.34C69.8117 43.3133 69.9184 43.28 70.0117 43.24C70.0517 43.2267 70.0984 43.22 70.1517 43.22C70.2317 43.22 70.2717 43.24 70.2717 43.28C70.2717 43.3333 70.2184 43.4 70.1117 43.48C70.0317 43.5333 69.9384 43.72 69.8317 44.04C69.7251 44.3467 69.6251 44.6867 69.5317 45.06C69.4517 45.4333 69.3917 45.74 69.3517 45.98L69.2117 46.98H69.7717C69.8784 46.3533 69.9984 45.7533 70.1317 45.18C70.2784 44.6067 70.4584 44.1133 70.6717 43.7C70.7384 43.5933 70.8717 43.4533 71.0717 43.28C71.2851 43.1067 71.4317 42.9933 71.5117 42.94C71.8184 42.7 72.0584 42.52 72.2317 42.4C72.4184 42.28 72.6984 42.22 73.0717 42.22C73.6451 42.22 74.1051 42.34 74.4517 42.58C74.8117 42.82 74.9917 43.08 74.9917 43.36C74.9917 43.4933 74.9384 43.6333 74.8317 43.78C74.6317 44.0333 74.4251 44.28 74.2117 44.52C74.0117 44.7467 73.8251 45.1133 73.6517 45.62C73.6117 45.7267 73.5784 45.8467 73.5517 45.98C73.5251 46.1 73.4584 46.1333 73.3517 46.08C73.3117 46.0533 73.3051 45.94 73.3317 45.74C73.3717 45.54 73.3917 45.3933 73.3917 45.3C73.3917 44.5133 73.2451 43.9733 72.9517 43.68C72.6584 43.3733 72.3384 43.24 71.9917 43.28C71.7251 43.3067 71.4584 43.5133 71.1917 43.9C70.9384 44.2867 70.7117 44.76 70.5117 45.32C70.3251 45.8667 70.1784 46.42 70.0717 46.98H72.0117C72.1051 46.98 72.1251 47.0333 72.0717 47.14C72.0317 47.2467 71.9584 47.3533 71.8517 47.46C71.7584 47.5667 71.6784 47.62 71.6117 47.62H69.9517C69.9384 47.74 69.9051 47.9933 69.8517 48.38C69.7984 48.7667 69.7384 49.2333 69.6717 49.78C69.6051 50.3267 69.5317 50.9133 69.4517 51.54C69.3717 52.1667 69.2917 52.7867 69.2117 53.4C69.1451 54.0133 69.0784 54.5667 69.0117 55.06C68.9984 55.2333 69.0317 55.36 69.1117 55.44C69.2051 55.52 69.3451 55.5733 69.5317 55.6C69.6784 55.6133 69.8651 55.6267 70.0917 55.64C70.3184 55.6533 70.5384 55.66 70.7517 55.66C70.9651 55.66 71.1251 55.66 71.2317 55.66H71.2517C71.3184 55.66 71.3517 55.6867 71.3517 55.74C71.3517 55.7933 71.3184 55.8533 71.2517 55.92C71.1851 55.9733 71.1117 56 71.0317 56C70.4717 56 69.9184 55.9867 69.3717 55.96C68.8384 55.9333 68.2984 55.92 67.7517 55.92C67.6184 55.92 67.4784 55.92 67.3317 55.92C67.1984 55.92 67.0584 55.9267 66.9117 55.94C66.6584 55.9533 66.3984 55.9733 66.1317 56C65.8651 56.0133 65.5117 56.02 65.0717 56.02ZM68.4717 55.48C68.6184 55.48 68.7117 55.36 68.7517 55.12C68.8051 54.7467 68.8651 54.2733 68.9317 53.7C69.0117 53.1267 69.0917 52.52 69.1717 51.88C69.2517 51.24 69.3251 50.6533 69.3917 50.12C69.4451 49.7333 69.4917 49.3333 69.5317 48.92C69.5851 48.4933 69.6384 48.06 69.6917 47.62H69.1117L68.8317 50.08C68.7651 50.7067 68.6851 51.3467 68.5917 52C68.5117 52.6533 68.4384 53.2533 68.3717 53.8C68.3184 54.3467 68.2851 54.7867 68.2717 55.12V55.16C68.2717 55.3733 68.3384 55.48 68.4717 55.48ZM73.7392 56.12C73.4859 56.12 73.2726 56.04 73.0992 55.88C72.9392 55.72 72.8059 55.5333 72.6992 55.32C72.6059 55.0933 72.5392 54.8733 72.4992 54.66C72.4592 54.4333 72.4392 54.26 72.4392 54.14C72.4392 53.5533 72.5659 53.06 72.8192 52.66C73.0859 52.26 73.4259 51.94 73.8392 51.7C74.2659 51.4467 74.7259 51.26 75.2192 51.14C75.7259 51.0067 76.2259 50.92 76.7192 50.88C77.2259 50.8267 77.6726 50.8067 78.0592 50.82C78.0592 50.82 78.0726 50.6933 78.0992 50.44C78.1392 50.1867 78.1659 49.9667 78.1792 49.78C78.1926 49.54 78.1859 49.2733 78.1592 48.98C78.1326 48.6867 78.0526 48.4333 77.9192 48.22C77.8926 48.18 77.8459 48.1133 77.7792 48.02C77.7126 47.9133 77.7259 47.84 77.8192 47.8C77.8326 47.7867 77.8592 47.78 77.8992 47.78C77.9792 47.78 78.0659 47.8533 78.1592 48C78.2659 48.1467 78.3326 48.3333 78.3592 48.56C78.3992 48.7867 78.4192 49.0267 78.4192 49.28C78.4192 49.3733 78.4192 49.46 78.4192 49.54C78.4192 49.62 78.4126 49.7067 78.3992 49.8C78.3859 50.0133 78.3592 50.24 78.3192 50.48C78.2926 50.7067 78.2792 50.82 78.2792 50.82C78.3059 50.8333 78.3392 50.84 78.3792 50.84C78.5392 50.84 78.6259 50.7733 78.6392 50.64C78.6659 50.4533 78.6926 50.2 78.7192 49.88C78.7592 49.5467 78.7792 49.2067 78.7792 48.86C78.7792 48.3667 78.7126 47.9267 78.5792 47.54C78.4592 47.14 78.1992 46.94 77.7992 46.94C77.5459 46.94 77.3059 47 77.0792 47.12C76.8526 47.2267 76.6592 47.3533 76.4992 47.5C76.2592 47.7267 76.0859 47.9933 75.9792 48.3C75.8859 48.5933 75.8059 48.8733 75.7392 49.14C75.6859 49.4067 75.5859 49.6067 75.4392 49.74C75.2659 49.9133 75.1059 50.0267 74.9592 50.08C74.8259 50.1333 74.6526 50.2267 74.4392 50.36C74.3726 50.4 74.2726 50.4533 74.1392 50.52C74.0192 50.5733 73.9059 50.6 73.7992 50.6C73.7059 50.6 73.6259 50.56 73.5592 50.48C73.4926 50.4 73.4726 50.2533 73.4992 50.04C73.5392 49.7467 73.5792 49.4333 73.6192 49.1C73.6592 48.7533 73.7059 48.5333 73.7592 48.44C73.9326 48.16 74.1792 47.9133 74.4992 47.7C74.8326 47.4867 75.1992 47.3067 75.5992 47.16C75.9992 47 76.3926 46.88 76.7792 46.8C77.1659 46.72 77.5059 46.6733 77.7992 46.66C78.3726 46.62 78.9059 46.68 79.3992 46.84C79.9059 47 80.3126 47.2467 80.6192 47.58C80.9259 47.9133 81.0792 48.3333 81.0792 48.84C81.0792 49.0133 81.0592 49.2 81.0192 49.4C80.8859 49.9733 80.7726 50.5533 80.6792 51.14C80.5859 51.7133 80.5126 52.2933 80.4592 52.88C80.4459 53.0133 80.4192 53.2133 80.3792 53.48C80.3526 53.7467 80.3392 54.02 80.3392 54.3C80.3392 54.6067 80.3792 54.8867 80.4592 55.14C80.5392 55.3933 80.6926 55.54 80.9192 55.58C81.0659 55.6067 81.2526 55.6267 81.4792 55.64C81.7059 55.6533 81.9192 55.66 82.1192 55.66C82.3326 55.66 82.4926 55.66 82.5992 55.66H82.6192C82.6859 55.66 82.7192 55.6867 82.7192 55.74C82.7192 55.7933 82.6859 55.8533 82.6192 55.92C82.5526 55.9733 82.4792 56 82.3992 56C81.9326 56 81.4659 55.9933 80.9992 55.98C80.5326 55.9667 80.0659 55.96 79.5992 55.96C79.3726 55.96 79.1392 55.9667 78.8992 55.98C78.6726 55.9933 78.4392 56 78.1992 56H77.9992C77.8392 56 77.7592 55.96 77.7592 55.88C77.7592 55.84 77.7659 55.7867 77.7792 55.72C77.8059 55.64 77.8326 55.5467 77.8592 55.44C77.9392 55.1467 78.0192 54.7867 78.0992 54.36C78.1792 53.9333 78.2526 53.5067 78.3192 53.08C78.3992 52.64 78.4592 52.26 78.4992 51.94C78.5392 51.6067 78.5592 51.3933 78.5592 51.3V51.26C78.5592 51.1667 78.5259 51.1067 78.4592 51.08C78.3926 51.0533 78.3259 51.0333 78.2592 51.02C78.1926 51.5933 78.0726 52.18 77.8992 52.78C77.7392 53.3667 77.5392 53.9133 77.2992 54.42C77.0726 54.9267 76.8326 55.34 76.5792 55.66C76.3259 55.9667 76.0792 56.12 75.8392 56.12H73.7392ZM75.8792 54.86C76.2792 54.86 76.6126 54.7067 76.8792 54.4C77.0926 54.16 77.2726 53.8667 77.4192 53.52C77.5659 53.16 77.6792 52.8 77.7592 52.44C77.8526 52.08 77.9192 51.7667 77.9592 51.5C78.0126 51.2333 78.0459 51.0667 78.0592 51C77.9792 50.9867 77.8992 50.98 77.8192 50.98C77.7526 50.98 77.6859 50.98 77.6192 50.98C77.2726 50.98 76.9459 51.0333 76.6392 51.14C76.3459 51.2333 76.0859 51.36 75.8592 51.52C75.5659 51.7333 75.3126 52.0333 75.0992 52.42C74.8859 52.7933 74.7792 53.18 74.7792 53.58C74.7792 53.82 74.8259 54.04 74.9192 54.24C75.0126 54.4533 75.1459 54.6133 75.3192 54.72C75.4926 54.8133 75.6792 54.86 75.8792 54.86ZM91.0275 56.34C90.6808 56.34 90.3475 56.2933 90.0275 56.2C89.7208 56.1067 89.4742 55.9467 89.2875 55.72C89.1675 55.5733 89.0008 55.3733 88.7875 55.12C88.5875 54.8533 88.4875 54.5933 88.4875 54.34C88.4875 54.2067 88.5208 54.1 88.5875 54.02C88.7608 53.78 88.9275 53.5533 89.0875 53.34C89.2608 53.1133 89.4275 52.8467 89.5875 52.54C89.7475 52.2333 89.8942 51.8333 90.0275 51.34C90.0808 51.18 90.1208 51.0133 90.1475 50.84C90.1742 50.6667 90.2542 50.6133 90.3875 50.68C90.4142 50.7067 90.4275 50.76 90.4275 50.84C90.4275 50.9733 90.4142 51.14 90.3875 51.34C90.3608 51.5267 90.3475 51.68 90.3475 51.8C90.3475 52.56 90.4942 53.1933 90.7875 53.7C91.0942 54.1933 91.4875 54.56 91.9675 54.8C92.4475 55.04 92.9542 55.16 93.4875 55.16C94.0475 55.16 94.5875 55.0333 95.1075 54.78C95.6275 54.5267 96.0542 54.1533 96.3875 53.66C96.7208 53.1667 96.8875 52.5667 96.8875 51.86C96.8875 51.4067 96.7608 51.04 96.5075 50.76C96.2542 50.48 95.9208 50.2733 95.5075 50.14C95.0942 49.9933 94.6542 49.8933 94.1875 49.84C93.7342 49.7867 93.2942 49.76 92.8675 49.76C92.2142 49.76 91.6342 49.6533 91.1275 49.44C90.6342 49.2267 90.2475 48.9467 89.9675 48.6C89.7008 48.2533 89.5675 47.8867 89.5675 47.5C89.5675 46.9667 89.7142 46.4733 90.0075 46.02C90.3142 45.5533 90.7142 45.1333 91.2075 44.76C91.7008 44.3733 92.2542 44.0467 92.8675 43.78C93.4808 43.5 94.1075 43.2867 94.7475 43.14C95.3875 42.9933 95.9942 42.92 96.5675 42.92C97.1142 42.92 97.5942 42.9933 98.0075 43.14C98.4342 43.2867 98.7542 43.5133 98.9675 43.82C99.2075 44.18 99.3275 44.4667 99.3275 44.68C99.3275 44.8133 99.2942 44.9467 99.2275 45.08C99.1608 45.2 99.0742 45.3333 98.9675 45.48C98.8075 45.6933 98.6742 45.88 98.5675 46.04C98.4608 46.1867 98.3542 46.3667 98.2475 46.58C98.1542 46.78 98.0342 47.0667 97.8875 47.44C97.8208 47.6 97.7542 47.68 97.6875 47.68C97.6342 47.68 97.6075 47.6267 97.6075 47.52C97.6075 47.44 97.6275 47.3533 97.6675 47.26C97.6942 47.1267 97.7142 47 97.7275 46.88C97.7542 46.76 97.7675 46.64 97.7675 46.52C97.7675 46.0133 97.6408 45.5667 97.3875 45.18C97.1342 44.7933 96.8008 44.4933 96.3875 44.28C95.9742 44.0533 95.5275 43.94 95.0475 43.94C94.6342 43.94 94.2142 44.04 93.7875 44.24C93.3608 44.4533 92.9942 44.76 92.6875 45.16C92.3808 45.5467 92.2275 46.0467 92.2275 46.66C92.2275 47.0867 92.3408 47.4267 92.5675 47.68C92.7942 47.9333 93.0808 48.12 93.4275 48.24C93.7875 48.36 94.1542 48.44 94.5275 48.48C94.9142 48.52 95.2608 48.54 95.5675 48.54C95.7142 48.54 95.8475 48.54 95.9675 48.54C96.0875 48.5267 96.1808 48.52 96.2475 48.52C97.3542 48.52 98.1275 48.6867 98.5675 49.02C99.0075 49.3533 99.2275 49.7733 99.2275 50.28C99.2275 50.9867 98.9942 51.7 98.5275 52.42C98.0742 53.1267 97.4608 53.78 96.6875 54.38C95.9142 54.9667 95.0342 55.44 94.0475 55.8C93.0742 56.16 92.0675 56.34 91.0275 56.34ZM99.7578 56.02C99.6511 56.02 99.5378 56.0133 99.4178 56C99.2978 56 99.1645 56 99.0178 56H98.9978C98.9578 56 98.9378 55.98 98.9378 55.94C98.9378 55.8867 98.9711 55.8267 99.0378 55.76C99.1045 55.68 99.1645 55.64 99.2178 55.64H99.9378C100.044 55.64 100.144 55.64 100.238 55.64C100.331 55.64 100.411 55.6333 100.478 55.62C100.758 55.5667 100.938 55.4467 101.018 55.26C101.111 55.06 101.178 54.8333 101.218 54.58C101.324 53.9267 101.431 53.1733 101.538 52.32C101.644 51.4667 101.744 50.5867 101.838 49.68C101.931 48.7733 102.011 47.9133 102.078 47.1C102.144 46.2867 102.198 45.6 102.238 45.04C102.278 44.5333 102.231 44.1933 102.098 44.02C101.978 43.8333 101.771 43.7333 101.478 43.72C101.198 43.6933 100.831 43.68 100.378 43.68C100.204 43.68 100.118 43.64 100.118 43.56C100.118 43.5067 100.158 43.4533 100.238 43.4C100.318 43.3467 100.398 43.32 100.478 43.32C100.558 43.32 100.684 43.3267 100.858 43.34C101.031 43.34 101.204 43.3467 101.378 43.36C101.551 43.36 101.658 43.36 101.698 43.36C102.164 43.3733 102.558 43.38 102.878 43.38C103.211 43.38 103.511 43.38 103.778 43.38H104.438C104.558 43.38 104.618 43.4533 104.618 43.6C104.618 43.6667 104.611 43.7467 104.598 43.84C104.584 43.92 104.564 44.0067 104.538 44.1C104.484 44.46 104.438 44.7733 104.398 45.04C104.358 45.3067 104.311 45.62 104.258 45.98C104.151 46.6733 104.038 47.4467 103.918 48.3C103.798 49.14 103.678 49.9933 103.558 50.86C103.451 51.7133 103.358 52.5267 103.278 53.3C103.211 54.06 103.178 54.7 103.178 55.22V55.28C103.178 55.4133 103.204 55.5 103.258 55.54C103.311 55.58 103.351 55.5933 103.378 55.58C103.458 55.58 103.504 55.52 103.518 55.4C103.544 55.28 103.564 55.1667 103.578 55.06C103.644 54.62 103.738 54.04 103.858 53.32C103.991 52.5867 104.118 51.8333 104.238 51.06C104.371 50.3 104.584 49.5933 104.878 48.94C105.171 48.2733 105.558 47.74 106.038 47.34C106.531 46.94 107.118 46.74 107.798 46.74C108.798 46.74 109.298 47.2267 109.298 48.2C109.298 48.2667 109.291 48.34 109.278 48.42C109.278 48.5 109.271 48.5867 109.258 48.68C109.164 49.3467 109.051 50.04 108.918 50.76C108.798 51.4667 108.704 52.1733 108.638 52.88C108.624 53.0133 108.598 53.2133 108.558 53.48C108.531 53.7467 108.518 54.02 108.518 54.3C108.518 54.6067 108.558 54.8867 108.638 55.14C108.718 55.38 108.871 55.52 109.098 55.56C109.244 55.5867 109.431 55.6067 109.658 55.62C109.884 55.6333 110.098 55.6467 110.298 55.66C110.511 55.66 110.671 55.66 110.778 55.66H110.798C110.864 55.66 110.898 55.6867 110.898 55.74C110.898 55.7933 110.864 55.8533 110.798 55.92C110.731 55.9733 110.658 56 110.578 56C110.044 56 109.511 55.9867 108.978 55.96C108.458 55.9333 107.931 55.92 107.398 55.92C107.238 55.92 107.078 55.92 106.918 55.92C106.771 55.92 106.618 55.9267 106.458 55.94C106.404 55.94 106.351 55.9467 106.298 55.96C106.258 55.96 106.224 55.96 106.198 55.96C106.038 55.96 105.958 55.9067 105.958 55.8C105.958 55.76 105.964 55.7133 105.978 55.66C106.004 55.5933 106.024 55.5133 106.038 55.42C106.118 55.1533 106.204 54.8067 106.298 54.38C106.391 53.94 106.484 53.4733 106.578 52.98C106.671 52.4867 106.751 52.0267 106.818 51.6C106.844 51.4267 106.878 51.1667 106.918 50.82C106.971 50.4733 106.998 50.1267 106.998 49.78C106.998 49.4067 106.951 49.08 106.858 48.8C106.764 48.52 106.584 48.38 106.318 48.38C105.984 48.38 105.691 48.54 105.438 48.86C105.184 49.1667 104.978 49.5533 104.818 50.02C104.658 50.4733 104.538 50.92 104.458 51.36C104.418 51.56 104.364 51.86 104.298 52.26C104.231 52.6467 104.164 53.06 104.098 53.5C104.031 53.9267 103.971 54.3 103.918 54.62C103.864 54.94 103.831 55.1333 103.818 55.2C103.804 55.24 103.798 55.28 103.798 55.32C103.798 55.36 103.798 55.3933 103.798 55.42C103.798 55.54 103.831 55.6133 103.898 55.64C103.964 55.6533 104.058 55.66 104.178 55.66H104.858C104.911 55.66 104.938 55.68 104.938 55.72C104.938 55.7733 104.904 55.84 104.838 55.92C104.784 55.9867 104.731 56.0133 104.678 56C104.278 55.9733 103.878 55.9533 103.478 55.94C103.091 55.9267 102.704 55.92 102.318 55.92C102.198 55.92 102.078 55.9267 101.958 55.94C101.838 55.94 101.718 55.94 101.598 55.94C101.344 55.9533 101.084 55.9733 100.818 56C100.551 56.0133 100.198 56.02 99.7578 56.02ZM114.228 56.16C113.828 56.16 113.428 56.08 113.028 55.92C112.628 55.76 112.302 55.5067 112.048 55.16C111.782 54.7733 111.582 54.3267 111.448 53.82C111.315 53.3 111.248 52.7733 111.248 52.24C111.248 51.3067 111.422 50.4533 111.768 49.68C112.022 49.1067 112.368 48.5867 112.808 48.12C113.262 47.6533 113.755 47.28 114.288 47C114.822 46.72 115.355 46.58 115.888 46.58C116.182 46.58 116.462 46.6267 116.728 46.72C117.008 46.8133 117.268 46.96 117.508 47.16C117.642 47.2667 117.748 47.3733 117.828 47.48C117.922 47.5867 118.008 47.6933 118.088 47.8C118.155 47.9067 118.188 48 118.188 48.08C118.188 48.1733 118.155 48.2533 118.088 48.32C117.915 48.5333 117.728 48.8333 117.528 49.22C117.342 49.6067 117.208 49.9933 117.128 50.38C117.222 50.3533 117.448 50.3267 117.808 50.3C118.168 50.26 118.515 50.24 118.848 50.24C118.955 50.24 119.048 50.2467 119.128 50.26C119.222 50.26 119.302 50.2667 119.368 50.28C119.555 50.2933 119.648 50.3467 119.648 50.44C119.648 50.5333 119.562 50.56 119.388 50.52C119.335 50.4933 119.268 50.48 119.188 50.48C119.108 50.48 119.022 50.48 118.928 50.48C118.715 50.48 118.475 50.4933 118.208 50.52C117.955 50.5467 117.728 50.58 117.528 50.62C117.328 50.6467 117.195 50.6667 117.128 50.68C117.128 50.7333 117.122 50.78 117.108 50.82C117.082 51.02 117.015 51.12 116.908 51.12C116.828 51.12 116.795 51.0333 116.808 50.86C116.822 50.8333 116.828 50.7867 116.828 50.72C116.082 50.8533 115.395 51.0333 114.768 51.26C114.155 51.4867 113.582 51.7467 113.048 52.04C113.288 52.9867 113.635 53.64 114.088 54C114.555 54.3467 115.035 54.52 115.528 54.52C115.982 54.52 116.402 54.42 116.788 54.22C117.188 54.0067 117.495 53.7933 117.708 53.58C117.748 53.54 117.782 53.52 117.808 53.52C117.848 53.52 117.868 53.5533 117.868 53.62C117.868 53.6867 117.808 53.78 117.688 53.9C117.568 54.02 117.422 54.1467 117.248 54.28C117.088 54.4 116.948 54.5 116.828 54.58C116.562 54.7533 116.315 55 116.088 55.32C115.862 55.6267 115.595 55.84 115.288 55.96C114.955 56.0933 114.602 56.16 114.228 56.16ZM112.968 51.46C113.568 51.2333 114.195 51.0267 114.848 50.84C115.515 50.64 116.195 50.4933 116.888 50.4C116.928 49.4267 116.762 48.7067 116.388 48.24C116.015 47.7733 115.588 47.54 115.108 47.54C114.762 47.54 114.415 47.6667 114.068 47.92C113.735 48.16 113.462 48.5133 113.248 48.98C113.035 49.4467 112.928 50.0267 112.928 50.72C112.928 50.84 112.928 50.96 112.928 51.08C112.942 51.2 112.955 51.3267 112.968 51.46ZM121.344 45.34C121.411 45.2733 121.464 45.1933 121.504 45.1C121.557 45.0067 121.591 44.9467 121.604 44.92C121.751 44.5733 121.917 44.2933 122.104 44.08C122.304 43.8667 122.544 43.7533 122.824 43.74C123.011 43.7267 123.184 43.72 123.344 43.72C123.517 43.7067 123.697 43.7 123.884 43.7C123.977 43.7 124.064 43.7067 124.144 43.72C124.237 43.72 124.324 43.72 124.404 43.72C124.457 43.72 124.484 43.74 124.484 43.78C124.484 43.8867 124.404 43.9733 124.244 44.04C124.151 44.0533 124.051 44.1533 123.944 44.34C123.837 44.5133 123.724 44.6933 123.604 44.88C123.497 45.0533 123.397 45.16 123.304 45.2C123.224 45.24 123.144 45.2667 123.064 45.28C122.984 45.2933 122.904 45.3 122.824 45.3C122.717 45.3 122.597 45.2933 122.464 45.28C122.344 45.2667 122.231 45.26 122.124 45.26C122.084 45.26 122.004 45.26 121.884 45.26C121.777 45.26 121.697 45.2733 121.644 45.3C121.591 45.3267 121.511 45.36 121.404 45.4C121.311 45.44 121.291 45.42 121.344 45.34ZM118.624 56.02C118.517 56.02 118.404 56.0133 118.284 56C118.164 56 118.031 56 117.884 56H117.864C117.824 56 117.804 55.98 117.804 55.94C117.804 55.8867 117.844 55.8267 117.924 55.76C117.991 55.68 118.051 55.64 118.104 55.64C118.277 55.64 118.431 55.6467 118.564 55.66C118.697 55.66 118.824 55.66 118.944 55.66C119.277 55.66 119.537 55.6133 119.724 55.52C119.911 55.4133 120.071 55.1867 120.204 54.84C120.337 54.48 120.477 53.9267 120.624 53.18C120.704 52.78 120.777 52.3467 120.844 51.88C120.911 51.4 120.971 50.94 121.024 50.5C121.077 50.0467 121.117 49.6467 121.144 49.3C121.171 48.9533 121.191 48.7 121.204 48.54C121.244 48.1133 121.184 47.8067 121.024 47.62C120.864 47.4333 120.637 47.3133 120.344 47.26C120.064 47.2067 119.737 47.18 119.364 47.18H118.744C118.571 47.18 118.484 47.1467 118.484 47.08C118.484 47.0133 118.517 46.96 118.584 46.92C118.664 46.8667 118.737 46.84 118.804 46.84L120.064 46.86C120.517 46.8733 120.957 46.8867 121.384 46.9C121.811 46.9 122.204 46.9 122.564 46.9C122.711 46.9 122.857 46.9 123.004 46.9C123.151 46.8867 123.277 46.88 123.384 46.88H123.404C123.524 46.88 123.584 46.94 123.584 47.06C123.584 47.1 123.577 47.1467 123.564 47.2C123.564 47.24 123.557 47.2867 123.544 47.34C123.384 48.1933 123.217 49.1267 123.044 50.14C122.884 51.1533 122.751 52.0933 122.644 52.96C122.631 53.12 122.604 53.3333 122.564 53.6C122.537 53.8533 122.511 54.0933 122.484 54.32C122.471 54.5333 122.464 54.6733 122.464 54.74C122.464 55.0067 122.537 55.2067 122.684 55.34C122.831 55.46 122.971 55.5333 123.104 55.56C123.251 55.5867 123.437 55.6067 123.664 55.62C123.891 55.6333 124.104 55.6467 124.304 55.66C124.517 55.66 124.677 55.66 124.784 55.66H124.804C124.871 55.66 124.904 55.6867 124.904 55.74C124.904 55.7933 124.871 55.8533 124.804 55.92C124.737 55.9733 124.664 56 124.584 56C124.024 56 123.477 55.9867 122.944 55.96C122.411 55.9333 121.871 55.92 121.324 55.92C121.191 55.92 121.051 55.92 120.904 55.92C120.771 55.92 120.631 55.9267 120.484 55.94C120.217 55.9533 119.951 55.9733 119.684 56C119.417 56.0133 119.064 56.02 118.624 56.02ZM133.831 56.08C133.777 56.08 133.717 56.08 133.651 56.08C133.597 56.08 133.537 56.0733 133.471 56.06C133.031 56.0067 132.631 55.8067 132.271 55.46C131.911 55.1133 131.584 54.6867 131.291 54.18C131.011 53.66 130.771 53.12 130.571 52.56C130.371 51.9867 130.211 51.4533 130.091 50.96C129.917 51.6533 129.771 52.4 129.651 53.2C129.531 53.9867 129.417 54.6533 129.311 55.2C129.297 55.2533 129.291 55.32 129.291 55.4C129.291 55.5333 129.364 55.6133 129.511 55.64C129.604 55.64 129.711 55.64 129.831 55.64C129.964 55.6267 130.117 55.62 130.291 55.62H130.331C130.397 55.62 130.431 55.6533 130.431 55.72C130.431 55.7733 130.404 55.8267 130.351 55.88C130.311 55.9333 130.257 55.96 130.191 55.96C129.977 55.96 129.844 55.9533 129.791 55.94C129.737 55.9133 129.597 55.9 129.371 55.9C128.531 55.9 127.691 55.92 126.851 55.96C126.531 55.9733 126.184 55.9867 125.811 56C125.437 56 125.091 56 124.771 56C124.704 56 124.671 55.9733 124.671 55.92C124.671 55.8667 124.704 55.8067 124.771 55.74C124.837 55.6733 124.911 55.64 124.991 55.64H125.771C126.077 55.64 126.297 55.56 126.431 55.4C126.564 55.2267 126.657 54.9533 126.711 54.58C126.804 54.06 126.891 53.4667 126.971 52.8C127.064 52.12 127.151 51.4133 127.231 50.68C127.311 49.9333 127.384 49.2067 127.451 48.5C127.517 47.78 127.577 47.12 127.631 46.52C127.684 45.92 127.717 45.4267 127.731 45.04C127.757 44.5333 127.704 44.1933 127.571 44.02C127.451 43.8333 127.251 43.7333 126.971 43.72C126.691 43.6933 126.317 43.68 125.851 43.68C125.691 43.68 125.611 43.64 125.611 43.56C125.611 43.5067 125.644 43.4533 125.711 43.4C125.791 43.3467 125.871 43.32 125.951 43.32C126.031 43.32 126.157 43.3267 126.331 43.34C126.517 43.34 126.691 43.3467 126.851 43.36C127.011 43.36 127.117 43.36 127.171 43.36C127.637 43.3733 128.031 43.38 128.351 43.38C128.684 43.38 128.984 43.38 129.251 43.38H129.931C130.037 43.38 130.091 43.4467 130.091 43.58C130.091 43.6333 130.084 43.7067 130.071 43.8C130.057 43.8933 130.037 43.9933 130.011 44.1C129.877 44.9533 129.751 45.8067 129.631 46.66C129.511 47.5 129.397 48.3467 129.291 49.2C129.197 49.9467 129.104 50.6933 129.011 51.44C128.917 52.1867 128.837 52.8867 128.771 53.54C128.717 54.1933 128.691 54.7533 128.691 55.22V55.26C128.691 55.4733 128.737 55.58 128.831 55.58C128.964 55.58 129.051 55.4067 129.091 55.06C129.117 54.8333 129.164 54.5267 129.231 54.14C129.297 53.7533 129.357 53.3733 129.411 53C129.477 52.6667 129.551 52.2533 129.631 51.76C129.724 51.2533 129.831 50.7533 129.951 50.26C129.937 50.1533 129.917 50.0533 129.891 49.96C129.877 49.8667 129.871 49.78 129.871 49.7V49.64C129.871 49.56 129.897 49.5067 129.951 49.48C130.017 49.44 130.077 49.4533 130.131 49.52C130.251 49.0267 130.377 48.6333 130.511 48.34C130.737 47.8867 131.011 47.4867 131.331 47.14C131.664 46.78 132.031 46.6 132.431 46.6C132.697 46.6 132.944 46.6267 133.171 46.68C133.411 46.72 133.637 46.74 133.851 46.74C134.224 46.74 134.477 46.6733 134.611 46.54C134.664 46.5133 134.691 46.5 134.691 46.5C134.717 46.5 134.731 46.52 134.731 46.56C134.731 46.6533 134.671 46.8 134.551 47C134.444 47.2 134.304 47.4133 134.131 47.64C133.957 47.8533 133.784 48.0533 133.611 48.24C133.437 48.4133 133.297 48.5267 133.191 48.58C133.057 48.6333 132.924 48.6733 132.791 48.7C132.657 48.7133 132.517 48.72 132.371 48.72C132.224 48.72 132.071 48.72 131.911 48.72C131.764 48.7067 131.611 48.6933 131.451 48.68C131.224 48.68 131.024 48.8067 130.851 49.06C130.677 49.3 130.517 49.62 130.371 50.02C130.517 50.2867 130.717 50.6133 130.971 51C131.224 51.3733 131.511 51.7667 131.831 52.18C132.164 52.5933 132.504 52.98 132.851 53.34C133.197 53.7 133.524 53.9933 133.831 54.22C134.151 54.4467 134.424 54.56 134.651 54.56C134.731 54.56 134.831 54.5267 134.951 54.46C135.071 54.38 135.131 54.22 135.131 53.98C135.131 53.9267 135.124 53.8733 135.111 53.82C135.111 53.7667 135.104 53.7133 135.091 53.66C135.091 53.6333 135.084 53.6133 135.071 53.6C135.071 53.5867 135.071 53.5733 135.071 53.56C135.071 53.4 135.131 53.32 135.251 53.32C135.331 53.32 135.371 53.3667 135.371 53.46C135.357 53.5933 135.357 53.7267 135.371 53.86C135.384 53.9933 135.397 54.1133 135.411 54.22C135.437 54.78 135.324 55.2333 135.071 55.58C134.831 55.9133 134.417 56.08 133.831 56.08ZM135.91 56.02C135.803 56.02 135.69 56.0133 135.57 56C135.45 56 135.317 56 135.17 56H135.15C135.11 56 135.09 55.98 135.09 55.94C135.09 55.8867 135.123 55.8267 135.19 55.76C135.257 55.68 135.317 55.64 135.37 55.64H136.09C136.197 55.64 136.297 55.64 136.39 55.64C136.483 55.64 136.563 55.6333 136.63 55.62C136.91 55.5667 137.09 55.4467 137.17 55.26C137.263 55.06 137.33 54.8333 137.37 54.58C137.477 53.9267 137.583 53.1733 137.69 52.32C137.797 51.4667 137.897 50.5867 137.99 49.68C138.083 48.7733 138.163 47.9133 138.23 47.1C138.297 46.2867 138.35 45.6 138.39 45.04C138.43 44.5333 138.383 44.1933 138.25 44.02C138.13 43.8333 137.923 43.7333 137.63 43.72C137.35 43.6933 136.983 43.68 136.53 43.68C136.357 43.68 136.27 43.64 136.27 43.56C136.27 43.5067 136.31 43.4533 136.39 43.4C136.47 43.3467 136.55 43.32 136.63 43.32C136.71 43.32 136.837 43.3267 137.01 43.34C137.183 43.34 137.357 43.3467 137.53 43.36C137.703 43.36 137.81 43.36 137.85 43.36C138.317 43.3733 138.71 43.38 139.03 43.38C139.363 43.38 139.663 43.38 139.93 43.38H140.59C140.71 43.38 140.77 43.4533 140.77 43.6C140.77 43.6667 140.763 43.7467 140.75 43.84C140.737 43.92 140.717 44.0067 140.69 44.1C140.637 44.46 140.59 44.7733 140.55 45.04C140.51 45.3067 140.463 45.62 140.41 45.98C140.303 46.6733 140.19 47.4467 140.07 48.3C139.95 49.14 139.83 49.9933 139.71 50.86C139.603 51.7133 139.51 52.5267 139.43 53.3C139.363 54.06 139.33 54.7 139.33 55.22V55.28C139.33 55.4133 139.357 55.5 139.41 55.54C139.463 55.58 139.503 55.5933 139.53 55.58C139.61 55.58 139.657 55.52 139.67 55.4C139.697 55.28 139.717 55.1667 139.73 55.06C139.797 54.62 139.89 54.04 140.01 53.32C140.143 52.5867 140.27 51.8333 140.39 51.06C140.523 50.3 140.737 49.5933 141.03 48.94C141.323 48.2733 141.71 47.74 142.19 47.34C142.683 46.94 143.27 46.74 143.95 46.74C144.95 46.74 145.45 47.2267 145.45 48.2C145.45 48.2667 145.443 48.34 145.43 48.42C145.43 48.5 145.423 48.5867 145.41 48.68C145.317 49.3467 145.203 50.04 145.07 50.76C144.95 51.4667 144.857 52.1733 144.79 52.88C144.777 53.0133 144.75 53.2133 144.71 53.48C144.683 53.7467 144.67 54.02 144.67 54.3C144.67 54.6067 144.71 54.8867 144.79 55.14C144.87 55.38 145.023 55.52 145.25 55.56C145.397 55.5867 145.583 55.6067 145.81 55.62C146.037 55.6333 146.25 55.6467 146.45 55.66C146.663 55.66 146.823 55.66 146.93 55.66H146.95C147.017 55.66 147.05 55.6867 147.05 55.74C147.05 55.7933 147.017 55.8533 146.95 55.92C146.883 55.9733 146.81 56 146.73 56C146.197 56 145.663 55.9867 145.13 55.96C144.61 55.9333 144.083 55.92 143.55 55.92C143.39 55.92 143.23 55.92 143.07 55.92C142.923 55.92 142.77 55.9267 142.61 55.94C142.557 55.94 142.503 55.9467 142.45 55.96C142.41 55.96 142.377 55.96 142.35 55.96C142.19 55.96 142.11 55.9067 142.11 55.8C142.11 55.76 142.117 55.7133 142.13 55.66C142.157 55.5933 142.177 55.5133 142.19 55.42C142.27 55.1533 142.357 54.8067 142.45 54.38C142.543 53.94 142.637 53.4733 142.73 52.98C142.823 52.4867 142.903 52.0267 142.97 51.6C142.997 51.4267 143.03 51.1667 143.07 50.82C143.123 50.4733 143.15 50.1267 143.15 49.78C143.15 49.4067 143.103 49.08 143.01 48.8C142.917 48.52 142.737 48.38 142.47 48.38C142.137 48.38 141.843 48.54 141.59 48.86C141.337 49.1667 141.13 49.5533 140.97 50.02C140.81 50.4733 140.69 50.92 140.61 51.36C140.57 51.56 140.517 51.86 140.45 52.26C140.383 52.6467 140.317 53.06 140.25 53.5C140.183 53.9267 140.123 54.3 140.07 54.62C140.017 54.94 139.983 55.1333 139.97 55.2C139.957 55.24 139.95 55.28 139.95 55.32C139.95 55.36 139.95 55.3933 139.95 55.42C139.95 55.54 139.983 55.6133 140.05 55.64C140.117 55.6533 140.21 55.66 140.33 55.66H141.01C141.063 55.66 141.09 55.68 141.09 55.72C141.09 55.7733 141.057 55.84 140.99 55.92C140.937 55.9867 140.883 56.0133 140.83 56C140.43 55.9733 140.03 55.9533 139.63 55.94C139.243 55.9267 138.857 55.92 138.47 55.92C138.35 55.92 138.23 55.9267 138.11 55.94C137.99 55.94 137.87 55.94 137.75 55.94C137.497 55.9533 137.237 55.9733 136.97 56C136.703 56.0133 136.35 56.02 135.91 56.02Z" fill="url(#paint2_linear_592_465)"/>
<defs>
<linearGradient id="paint0_linear_592_465" x1="60.128" y1="-0.307353" x2="107.202" y2="9.66982" gradientUnits="userSpaceOnUse">
<stop stop-color="#6AFFD0"/>
<stop offset="0.33" stop-color="#00E19A"/>
<stop offset="0.94" stop-color="#067E58"/>
</linearGradient>
<linearGradient id="paint1_linear_592_465" x1="62.0231" y1="2.07063" x2="68.7945" y2="2.86271" gradientUnits="userSpaceOnUse">
<stop stop-color="#6AFFD0"/>
<stop offset="0.33" stop-color="#00E19A"/>
<stop offset="0.94" stop-color="#067E58"/>
</linearGradient>
<linearGradient id="paint2_linear_592_465" x1="12.8238" y1="36.7439" x2="108.43" y2="118.944" gradientUnits="userSpaceOnUse">
<stop stop-color="#6AFFD0"/>
<stop offset="0.33" stop-color="#00E19A"/>
<stop offset="0.94" stop-color="#067E58"/>
</linearGradient>
</defs>
</svg>
