<svg width="41" height="90" viewBox="0 0 41 90" fill="none" xmlns="http://www.w3.org/2000/svg">
<circle cx="20.5" cy="20" r="19" stroke="white" stroke-width="2"/>
<path d="M21.5 9C21.5 8.44772 21.0523 8 20.5 8C19.9477 8 19.5 8.44772 19.5 9L21.5 9ZM19.7929 89.7071C20.1834 90.0976 20.8166 90.0976 21.2071 89.7071L27.5711 83.3431C27.9616 82.9526 27.9616 82.3195 27.5711 81.9289C27.1805 81.5384 26.5474 81.5384 26.1569 81.9289L20.5 87.5858L14.8431 81.9289C14.4526 81.5384 13.8195 81.5384 13.4289 81.9289C13.0384 82.3195 13.0384 82.9526 13.4289 83.3431L19.7929 89.7071ZM19.5 9L19.5 89L21.5 89L21.5 9L19.5 9Z" fill="white"/>
</svg>
