<svg width="40" height="40" viewBox="0 0 40 40" fill="none" xmlns="http://www.w3.org/2000/svg">
<path d="M3.59375 9.5625H12.0625C13.3761 9.5625 14.636 10.0843 15.5649 11.0132C16.4938 11.9421 17.0156 13.202 17.0156 14.5156V15.0469C17.0156 16.3605 16.4938 17.6204 15.5649 18.5493C14.636 19.4782 13.3761 20 12.0625 20H3.59375V9.5625Z" stroke="#00E19A" stroke-miterlimit="10"/>
<path d="M3.59375 20H13.2812C14.6545 20.0164 15.9659 20.5735 16.9311 21.5505C17.8964 22.5274 18.4376 23.8454 18.4375 25.2187C18.4376 26.5921 17.8964 27.9101 16.9311 28.887C15.9659 29.864 14.6545 30.4211 13.2812 30.4375H3.59375V20Z" stroke="#00E19A" stroke-miterlimit="10"/>
<path d="M22.9845 22.9844H36.4063C36.5 21.106 35.8455 19.2671 34.5863 17.8702C33.327 16.4733 31.5656 15.6323 29.6876 15.5312C27.8124 15.6362 26.0549 16.479 24.799 17.8754C23.543 19.2719 22.8907 21.1086 22.9845 22.9844ZM22.9845 22.9844C22.8907 24.8602 23.543 26.6969 24.799 28.0933C26.0549 29.4898 27.8124 30.3325 29.6876 30.4375C30.7584 30.4238 31.8089 30.1438 32.7446 29.6228C33.6802 29.1018 34.4714 28.3562 35.047 27.4531" stroke="#00E19A" stroke-miterlimit="10"/>
<path d="M22.9844 11.0469H36.4062" stroke="#00E19A" stroke-miterlimit="10"/>
</svg>
