<svg width="60" height="60" viewBox="0 0 60 60" fill="none" xmlns="http://www.w3.org/2000/svg">
<g clip-path="url(#clip0_418_473)">
<path d="M19.5996 28.8267C19.1861 30.7178 17.4991 32.1382 15.4858 32.1382C14.949 32.1382 14.5139 32.5733 14.5139 33.1102C14.5139 33.647 14.949 34.0821 15.4858 34.0821C18.5666 34.0821 21.1258 31.8069 21.5721 28.8485C23.4584 28.6445 25.1997 27.804 26.5477 26.4281C26.9234 26.0447 26.917 25.4293 26.5336 25.0537C26.1502 24.6783 25.5348 24.6842 25.1591 25.0677C23.967 26.2845 22.3726 26.9547 20.6694 26.9547C17.2038 26.9547 14.3843 24.1352 14.3843 20.6696C14.3843 20.1327 13.9491 19.6976 13.4124 19.6976C12.8756 19.6976 12.4404 20.1327 12.4404 20.6696C12.4404 24.8443 15.566 28.3003 19.5996 28.8267Z" fill="#E3E4E6"/>
<path d="M23.7147 37.2571C23.7147 36.7202 23.2796 36.2852 22.7428 36.2852C18.2054 36.2852 14.5139 39.9766 14.5139 44.5141C14.5139 44.561 14.5155 44.6081 14.5163 44.6551C14.1549 44.6064 13.7869 44.5789 13.4124 44.5789C12.8756 44.5789 12.4404 45.0139 12.4404 45.5508C12.4404 46.0877 12.8756 46.5227 13.4124 46.5227C16.878 46.5227 19.6974 49.3422 19.6974 52.8078C19.6974 53.3447 20.1326 53.7798 20.6694 53.7798C21.2061 53.7798 21.6413 53.3447 21.6413 52.8078C21.6413 49.3593 19.508 46.4013 16.4926 45.1793C16.4695 44.9591 16.4577 44.7363 16.4577 44.5141C16.4577 41.0485 19.2772 38.229 22.7428 38.229C23.2796 38.229 23.7147 37.794 23.7147 37.2571Z" fill="#E3E4E6"/>
<path d="M56.89 28.9633C56.89 26.7505 56.0062 24.6536 54.444 23.1115C54.6914 22.32 54.8166 21.5013 54.8166 20.6695C54.8166 16.6686 51.9459 13.3271 48.1565 12.5924C48.4461 11.8704 48.5963 11.0965 48.5963 10.3024C48.5963 7.76799 47.0564 5.587 44.8634 4.64436C41.2096 1.7343 37.2134 0 34.1471 0C32.4426 0 30.931 0.838186 30.0002 2.1232C29.0694 0.838186 27.5578 0 25.8533 0C22.787 0 18.7908 1.7343 15.137 4.64436C12.944 5.587 11.4041 7.76799 11.4041 10.3024C11.4041 11.0965 11.5543 11.8704 11.8439 12.5924C8.05445 13.3271 5.18379 16.6686 5.18379 20.6695C5.18379 21.5013 5.30884 22.3199 5.55636 23.1115C3.99415 24.6536 3.11035 26.7505 3.11035 28.9633C3.11035 30.693 3.64802 32.2991 4.56344 33.6253C3.61212 35.0005 3.11035 36.6047 3.11035 38.2937C3.11035 41.2857 4.7415 44.027 7.32409 45.4725C7.27964 45.8421 7.25722 46.215 7.25722 46.5875C7.25722 50.6234 9.88983 54.1917 13.7095 55.4077C15.371 58.2512 18.3974 60 21.7065 60C25.3343 60 28.48 57.9031 30.0002 54.8587C31.5204 57.9031 34.6661 60 38.2939 60C41.603 60 44.6294 58.2512 46.2909 55.4077C50.1106 54.1915 52.7432 50.6233 52.7432 46.5875C52.7432 46.215 52.7208 45.8421 52.6763 45.4725C55.2589 44.027 56.89 41.2857 56.89 38.2937C56.89 36.6047 56.3883 35.0005 55.437 33.6253C56.3524 32.2991 56.89 30.693 56.89 28.9633ZM21.7065 58.0562C18.9813 58.0562 16.4981 56.5537 15.2258 54.1353C15.0997 53.8957 14.8797 53.7196 14.6183 53.6492C11.4287 52.7908 9.20106 49.887 9.20106 46.5875C9.20106 46.0937 9.25083 45.5992 9.34893 45.1174C9.4399 44.6707 9.20806 44.2206 8.79143 44.0353C6.52115 43.0261 5.0542 40.7723 5.0542 38.2937C5.0542 37.1664 5.34655 36.0889 5.90443 35.1345C7.35532 36.4137 9.25757 37.1922 11.3393 37.1922C11.8761 37.1922 12.3112 36.7572 12.3112 36.2203C12.3112 35.6834 11.8761 35.2484 11.3393 35.2484C7.87368 35.2484 5.0542 32.4289 5.0542 28.9633C5.0542 27.0977 5.87735 25.3394 7.31268 24.1398C7.63666 23.869 7.74875 23.42 7.59001 23.0287C7.28314 22.2724 7.12763 21.4787 7.12763 20.6695C7.12763 17.2039 9.94711 14.3844 13.4127 14.3844C16.8783 14.3844 19.6978 17.2039 19.6978 20.6695C19.6978 21.2064 20.133 21.6415 20.6697 21.6415C21.2065 21.6415 21.6417 21.2064 21.6417 20.6695C21.6417 16.3099 18.2332 12.7331 13.9413 12.4594C13.5523 11.8091 13.3479 11.0697 13.3479 10.3024C13.3479 8.56989 14.3997 7.07883 15.898 6.43296C15.9559 6.41572 16.0127 6.39317 16.0675 6.36466C16.5317 6.18816 17.0344 6.09071 17.5596 6.09071C19.1869 6.09071 20.6396 7.00056 21.3509 8.46544C21.5854 8.94842 22.167 9.14981 22.6497 8.91512C23.1326 8.68069 23.334 8.09922 23.0994 7.61637C22.2874 5.94428 20.7506 4.74246 18.9808 4.31676C21.4614 2.80315 23.9035 1.94384 25.8533 1.94384C27.604 1.94384 29.0283 3.36803 29.0283 5.11879V17.6956C28.155 17.0028 27.052 16.5875 25.8533 16.5875C25.3166 16.5875 24.8814 17.0225 24.8814 17.5594C24.8814 18.0963 25.3166 18.5313 25.8533 18.5313C27.604 18.5313 29.0283 19.9555 29.0283 21.7063V45.0686C27.8199 43.5095 26.1163 42.3328 24.1123 41.7943C23.5941 41.6556 23.0608 41.9624 22.9215 42.4808C22.7822 42.9993 23.0896 43.5324 23.6079 43.6716C26.7993 44.5291 29.0283 47.4333 29.0283 50.7343C29.0283 54.7716 25.7437 58.0562 21.7065 58.0562ZM51.209 44.0355C50.7923 44.2208 50.5605 44.6707 50.6515 45.1175C50.7496 45.5994 50.7993 46.0939 50.7993 46.5876C50.7993 49.8871 48.5717 52.7909 45.3821 53.6493C45.1207 53.7197 44.9005 53.8958 44.7746 54.1354C43.5023 56.5537 41.0191 58.0562 38.2939 58.0562C34.2567 58.0562 30.9721 54.7716 30.9721 50.7343C30.9721 50.461 30.9594 50.1901 30.9357 49.9217C30.9588 49.8386 30.9721 49.7514 30.9721 49.661V17.5594C30.9721 15.8086 32.3964 14.3844 34.1471 14.3844C34.6838 14.3844 35.119 13.9494 35.119 13.4125C35.119 12.8756 34.6838 12.4406 34.1471 12.4406C32.9484 12.4406 31.8454 12.8559 30.9721 13.5487V5.11879C30.9721 3.36803 32.3964 1.94384 34.1471 1.94384C36.0969 1.94384 38.539 2.80315 41.0196 4.31676C39.2498 4.74233 37.713 5.94428 36.901 7.61637C36.6664 8.09935 36.8678 8.68082 37.3507 8.91512C37.8335 9.14968 38.415 8.94842 38.6495 8.46544C39.3608 7.00056 40.8135 6.09071 42.4408 6.09071C42.966 6.09071 43.4688 6.18816 43.9329 6.36466C43.9876 6.39317 44.0443 6.41559 44.102 6.43283C45.6006 7.0787 46.6525 8.56976 46.6525 10.3024C46.6525 11.0697 46.4481 11.8091 46.0591 12.4594C41.7672 12.7331 38.3587 16.3099 38.3587 20.6695C38.3587 21.2064 38.7939 21.6415 39.3307 21.6415C39.8674 21.6415 40.3026 21.2064 40.3026 20.6695C40.3026 17.2039 43.1221 14.3844 46.5877 14.3844C50.0533 14.3844 52.8728 17.2039 52.8728 20.6695C52.8728 21.4787 52.7173 22.2724 52.4105 23.0287C52.2518 23.4201 52.3639 23.869 52.6878 24.1398C54.1231 25.3394 54.9462 27.0977 54.9462 28.9633C54.9462 32.4289 52.1267 35.2484 48.6611 35.2484C48.1243 35.2484 47.6892 35.6834 47.6892 36.2203C47.6892 36.7572 48.1243 37.1922 48.6611 37.1922C50.7428 37.1922 52.6451 36.4137 54.096 35.1345C54.654 36.0889 54.9462 37.1664 54.9462 38.2937C54.9462 40.7723 53.4793 43.0261 51.209 44.0355Z" fill="#E3E4E6"/>
<path d="M46.5876 31.1015C44.5743 31.1015 42.8873 29.6811 42.4738 27.79C46.5074 27.2636 49.633 23.8075 49.633 19.6328C49.633 19.0959 49.1978 18.6609 48.661 18.6609C48.1243 18.6609 47.6891 19.0959 47.6891 19.6328C47.6891 23.0984 44.8696 25.9179 41.404 25.9179C39.7008 25.9179 38.1064 25.2478 36.9143 24.031C36.5387 23.6476 35.9233 23.6413 35.5398 24.017C35.1564 24.3926 35.15 25.0079 35.5257 25.3914C36.8737 26.7672 38.615 27.6078 40.5013 27.8117C40.9476 30.7701 43.5067 33.0453 46.5876 33.0453C47.1244 33.0453 47.5595 32.6103 47.5595 32.0734C47.5595 31.5365 47.1244 31.1015 46.5876 31.1015Z" fill="#E3E4E6"/>
<path d="M43.4772 42.5054C43.1027 42.5054 42.7346 42.5329 42.3732 42.5816C42.374 42.5346 42.3757 42.4875 42.3757 42.4406C42.3757 37.9032 38.6842 34.2117 34.1467 34.2117C33.61 34.2117 33.1748 34.6467 33.1748 35.1836C33.1748 35.7205 33.61 36.1555 34.1467 36.1555C37.6123 36.1555 40.4318 38.975 40.4318 42.4406C40.4318 42.6627 40.42 42.8856 40.397 43.1058C37.3815 44.3278 35.2482 47.2858 35.2482 50.7343C35.2482 51.2712 35.6834 51.7063 36.2202 51.7063C36.7569 51.7063 37.1921 51.2712 37.1921 50.7343C37.1921 47.2687 40.0116 44.4493 43.4772 44.4493C44.0139 44.4493 44.4491 44.0142 44.4491 43.4773C44.4491 42.9404 44.0139 42.5054 43.4772 42.5054Z" fill="#E3E4E6"/>
</g>
<defs>
<clipPath id="clip0_418_473">
<rect width="60" height="60" fill="white"/>
</clipPath>
</defs>
</svg>
