<svg width="60" height="60" viewBox="0 0 60 60" fill="none" xmlns="http://www.w3.org/2000/svg">
<path d="M29.6937 19.4938L28.9437 19.2188C28.0207 18.8801 27.1209 18.4814 26.25 18.025C24.425 17.0438 22.725 13.95 22.5375 13.6L21.9688 12.5L23.125 12.2188C23.375 12.15 25.625 11.6375 28.5 13.5125C31.375 15.3875 30.575 17.9438 30.075 18.8063L29.6937 19.4938ZM23.85 13.3688C24.5062 14.5125 25.7562 16.3375 26.85 16.925C27.582 17.3119 28.3376 17.6522 29.1125 17.9438C29.35 17.35 29.7375 15.7938 27.8625 14.5563C26.6969 13.7198 25.2831 13.3014 23.85 13.3688Z" fill="#E3E4E6"/>
<path d="M30.0878 19.4937L29.6878 18.8C29.2026 17.8898 29.0945 16.8255 29.3868 15.8364C29.679 14.8473 30.3483 14.0127 31.2503 13.5125C34.0941 11.6375 36.3691 12.1562 36.6253 12.2187L37.8128 12.5L37.2378 13.575C37.0503 13.9187 35.3628 17.0125 33.5191 18C32.6498 18.4552 31.7521 18.854 30.8316 19.1937L30.0878 19.4937ZM35.5753 13.3562C34.2757 13.3936 33.0155 13.8108 31.9503 14.5562C30.0753 15.8062 30.4253 17.3437 30.7003 17.9437C31.4742 17.6497 32.2297 17.3095 32.9628 16.925C34.0628 16.3312 35.3066 14.5062 35.9628 13.3687L35.5753 13.3562Z" fill="#E3E4E6"/>
<path d="M29.5314 31.0875L28.6939 30.7812C27.4713 30.3247 26.2775 29.7946 25.1189 29.1937C22.7252 27.9062 20.4752 23.8062 20.2314 23.3437L19.6064 22.1437L20.9127 21.8C21.0439 21.7687 24.1314 21.0062 27.9502 23.5062C32.2064 26.3062 30.0002 30.275 30.0002 30.3125L29.5314 31.0875ZM21.4502 22.9625C22.2877 24.475 24.1064 27.225 25.7127 28.0937C26.764 28.6415 27.8472 29.1257 28.9564 29.5437C29.2439 28.9187 30.1189 26.4187 27.2439 24.5437C24.3689 22.6687 22.1689 22.85 21.4502 22.9625Z" fill="#E3E4E6"/>
<path d="M30.2498 31.0875L29.8061 30.3125C29.8061 30.275 27.5686 26.3063 31.8498 23.5063C35.5998 21.0563 38.5561 21.7188 38.8811 21.8L40.1936 22.1438L39.5686 23.3438C39.3186 23.8063 37.0686 27.9063 34.6748 29.1938C33.5163 29.7947 32.3225 30.3248 31.0998 30.7813L30.2498 31.0875ZM37.4998 22.9063C35.7082 22.9531 33.9697 23.5246 32.4998 24.55C29.6311 26.425 30.4998 28.925 30.7873 29.55C31.9067 29.1414 33.0003 28.6655 34.0623 28.125C35.6686 27.2563 37.4873 24.5063 38.3311 22.9938C38.0564 22.9451 37.7786 22.9159 37.4998 22.9063Z" fill="#E3E4E6"/>
<path d="M33.0129 53.0813H26.8129C25.8725 53.0763 24.9724 52.6984 24.3104 52.0305C23.6483 51.3626 23.2783 50.4592 23.2817 49.5188V38.7125C22.5965 37.4484 21.8281 36.2312 20.9817 35.0688C18.1567 30.8625 13.8879 24.5063 13.4817 20.3563C13.2201 18.2354 13.4198 16.083 14.067 14.0464C14.7142 12.0099 15.7937 10.1371 17.2317 8.5563C20.4129 5.00005 25.3879 2.7063 29.8879 2.7063C32.4206 2.73328 34.9181 3.30157 37.2131 4.37307C39.5081 5.44456 41.5474 6.99446 43.1942 8.9188C44.5366 10.4794 45.5138 12.3199 46.0544 14.3062C46.5951 16.2925 46.6855 18.3744 46.3192 20.4C45.4754 25.0563 41.4004 31.1313 38.7067 35.1563C37.8948 36.2655 37.1698 37.4356 36.5379 38.6563V49.5188C36.5413 50.4582 36.1721 51.3606 35.5114 52.0283C34.8507 52.696 33.9523 53.0747 33.0129 53.0813ZM29.8879 3.9563C27.6671 4.04045 25.4847 4.56247 23.4662 5.49238C21.4476 6.42229 19.6326 7.74176 18.1254 9.37505C16.8074 10.8271 15.818 12.5464 15.2248 14.4156C14.6316 16.2848 14.4484 18.2599 14.6879 20.2063C15.0817 24.05 19.2504 30.25 22.0067 34.35C23.8817 37.125 24.5067 38.1 24.5067 38.6938V49.5188C24.5042 49.8205 24.5613 50.1198 24.6747 50.3994C24.7881 50.6791 24.9555 50.9336 25.1674 51.1484C25.3793 51.3633 25.6316 51.5341 25.9096 51.6513C26.1877 51.7685 26.4862 51.8297 26.7879 51.8313H32.9879C33.5968 51.8263 34.1789 51.5801 34.6066 51.1466C35.0342 50.7131 35.2725 50.1277 35.2692 49.5188V38.6125C35.2692 38.0375 35.8942 37.0938 37.6442 34.4625C40.2817 30.525 44.2629 24.575 45.0629 20.1813C45.3958 18.3357 45.3121 16.4391 44.8179 14.63C44.3238 12.8209 43.4316 11.1451 42.2067 9.72505C40.6821 7.94221 38.7946 6.50534 36.6702 5.51051C34.5458 4.51568 32.2335 3.9858 29.8879 3.9563Z" fill="#E3E4E6"/>
<path d="M38.1248 40.3313H21.6748C21.509 40.3313 21.3501 40.2655 21.2329 40.1482C21.1157 40.031 21.0498 39.8721 21.0498 39.7063C21.0498 39.5405 21.1157 39.3816 21.2329 39.2644C21.3501 39.1471 21.509 39.0813 21.6748 39.0813H38.1248C38.2906 39.0813 38.4495 39.1471 38.5667 39.2644C38.684 39.3816 38.7498 39.5405 38.7498 39.7063C38.7498 39.8721 38.684 40.031 38.5667 40.1482C38.4495 40.2655 38.2906 40.3313 38.1248 40.3313Z" fill="#E3E4E6"/>
<path d="M30.5379 16.0813C30.3691 18.05 30.3379 20.0188 30.3629 21.9875C30.3505 22.973 30.4006 23.9583 30.5129 24.9375C30.6379 25.925 30.8066 26.9125 30.8379 27.8938C30.9504 29.8625 30.4754 31.8313 30.4316 33.8C30.3671 35.7693 30.4025 37.7406 30.5379 39.7063C30.5511 39.872 30.498 40.0363 30.3902 40.1628C30.2824 40.2894 30.1286 40.368 29.9629 40.3813C29.8808 40.3878 29.7982 40.3782 29.7199 40.3528C29.6416 40.3275 29.569 40.2869 29.5063 40.2336C29.3797 40.1257 29.3011 39.972 29.2879 39.8063C29.2816 39.7732 29.2816 39.7393 29.2879 39.7063C29.4201 37.7404 29.4493 35.7689 29.3754 33.8C29.3316 31.8313 28.8629 29.8625 28.9754 27.8938C28.9754 26.9125 29.1754 25.925 29.2941 24.9375C29.4085 23.9585 29.4607 22.9732 29.4504 21.9875C29.4504 20.0188 29.4504 18.05 29.2754 16.0813C29.2684 15.9992 29.2777 15.9165 29.3026 15.838C29.3276 15.7595 29.3678 15.6867 29.4209 15.6238C29.474 15.5608 29.539 15.5089 29.6121 15.471C29.6853 15.4332 29.7652 15.4101 29.8473 15.4031C29.9293 15.3962 30.012 15.4054 30.0905 15.4304C30.169 15.4553 30.2418 15.4955 30.3048 15.5486C30.3677 15.6017 30.4196 15.6667 30.4575 15.7399C30.4953 15.813 30.5184 15.8929 30.5254 15.975L30.5379 16.0813Z" fill="#E3E4E6"/>
<path d="M49.4809 57.5H41.9121C41.7463 57.5 41.5874 57.4342 41.4702 57.3169C41.353 57.1997 41.2871 57.0408 41.2871 56.875C41.2871 56.7092 41.353 56.5503 41.4702 56.4331C41.5874 56.3158 41.7463 56.25 41.9121 56.25H49.4809C49.6466 56.25 49.8056 56.3158 49.9228 56.4331C50.04 56.5503 50.1059 56.7092 50.1059 56.875C50.1059 57.0408 50.04 57.1997 49.9228 57.3169C49.8056 57.4342 49.6466 57.5 49.4809 57.5Z" fill="#E3E4E6"/>
<path d="M39.5254 57.5H22.6504C22.4846 57.5 22.3257 57.4342 22.2084 57.3169C22.0912 57.1997 22.0254 57.0408 22.0254 56.875C22.0254 56.7092 22.0912 56.5503 22.2084 56.4331C22.3257 56.3158 22.4846 56.25 22.6504 56.25H39.5254C39.6911 56.25 39.8501 56.3158 39.9673 56.4331C40.0845 56.5503 40.1504 56.7092 40.1504 56.875C40.1504 57.0408 40.0845 57.1997 39.9673 57.3169C39.8501 57.4342 39.6911 57.5 39.5254 57.5Z" fill="#E3E4E6"/>
<path d="M19.6125 57.5H17.3125C17.1467 57.5 16.9878 57.4342 16.8706 57.3169C16.7533 57.1997 16.6875 57.0408 16.6875 56.875C16.6875 56.7092 16.7533 56.5503 16.8706 56.4331C16.9878 56.3158 17.1467 56.25 17.3125 56.25H19.6125C19.7783 56.25 19.9372 56.3158 20.0544 56.4331C20.1717 56.5503 20.2375 56.7092 20.2375 56.875C20.2375 57.0408 20.1717 57.1997 20.0544 57.3169C19.9372 57.4342 19.7783 57.5 19.6125 57.5Z" fill="#E3E4E6"/>
<path d="M12.5002 57.5H11.4814C11.3157 57.5 11.1567 57.4342 11.0395 57.3169C10.9223 57.1997 10.8564 57.0408 10.8564 56.875C10.8564 56.7092 10.9223 56.5503 11.0395 56.4331C11.1567 56.3158 11.3157 56.25 11.4814 56.25H12.5002C12.666 56.25 12.8249 56.3158 12.9421 56.4331C13.0593 56.5503 13.1252 56.7092 13.1252 56.875C13.1252 57.0408 13.0593 57.1997 12.9421 57.3169C12.8249 57.4342 12.666 57.5 12.5002 57.5Z" fill="#E3E4E6"/>
<path d="M28.125 44.025H23.9062C23.7405 44.025 23.5815 43.9592 23.4643 43.842C23.3471 43.7248 23.2812 43.5658 23.2812 43.4C23.2812 43.2343 23.3471 43.0753 23.4643 42.9581C23.5815 42.8409 23.7405 42.775 23.9062 42.775H28.125C28.2908 42.775 28.4497 42.8409 28.5669 42.9581C28.6842 43.0753 28.75 43.2343 28.75 43.4C28.75 43.5658 28.6842 43.7248 28.5669 43.842C28.4497 43.9592 28.2908 44.025 28.125 44.025Z" fill="#E3E4E6"/>
<path d="M35.9184 48.95H31.6309C31.4651 48.95 31.3061 48.8841 31.1889 48.7669C31.0717 48.6497 31.0059 48.4907 31.0059 48.325C31.0059 48.1592 31.0717 48.0002 31.1889 47.883C31.3061 47.7658 31.4651 47.7 31.6309 47.7H35.9184C36.0841 47.7 36.2431 47.7658 36.3603 47.883C36.4775 48.0002 36.5434 48.1592 36.5434 48.325C36.5434 48.4907 36.4775 48.6497 36.3603 48.7669C36.2431 48.8841 36.0841 48.95 35.9184 48.95Z" fill="#E3E4E6"/>
<path d="M29.8816 57.5H29.8066C28.9364 57.5 28.1018 57.1543 27.4864 56.539C26.8711 55.9236 26.5254 55.089 26.5254 54.2188V51.8313H33.1629V54.2188C33.1629 55.089 32.8172 55.9236 32.2018 56.539C31.5865 57.1543 30.7519 57.5 29.8816 57.5ZM27.7754 53.0813V54.2188C27.777 54.757 27.9916 55.2727 28.3722 55.6533C28.7527 56.0339 29.2684 56.2484 29.8066 56.25H29.8816C30.4199 56.2484 30.9356 56.0339 31.3161 55.6533C31.6967 55.2727 31.9112 54.757 31.9129 54.2188V53.0813H27.7754Z" fill="#E3E4E6"/>
<path d="M24.8751 10.875C24.7433 10.8749 24.615 10.8331 24.5083 10.7556C24.4017 10.6782 24.3223 10.569 24.2814 10.4437L23.2251 7.2687C23.1993 7.19073 23.1891 7.10843 23.195 7.0265C23.201 6.94457 23.223 6.86461 23.2598 6.7912C23.3343 6.64292 23.4645 6.53029 23.622 6.47808C23.7795 6.42586 23.9513 6.43834 24.0995 6.51277C24.2478 6.5872 24.3604 6.71748 24.4126 6.87495L25.4689 10.05C25.5204 10.2066 25.508 10.3773 25.4342 10.5248C25.3605 10.6723 25.2314 10.7847 25.0751 10.8375C25.011 10.8608 24.9434 10.8735 24.8751 10.875Z" fill="#E3E4E6"/>
<path d="M35.3747 11.0937C35.3083 11.0934 35.2426 11.0807 35.1809 11.0562C35.0247 11.0034 34.8956 10.8911 34.8218 10.7436C34.7481 10.596 34.7356 10.4254 34.7872 10.2687L35.8434 7.0937C35.9057 6.95041 36.0194 6.83563 36.162 6.77198C36.3047 6.70834 36.4661 6.70044 36.6143 6.74985C36.7625 6.79925 36.8868 6.90238 36.9628 7.03891C37.0388 7.17543 37.0608 7.33546 37.0247 7.48745L35.9684 10.6625C35.9276 10.7878 35.8481 10.8969 35.7415 10.9744C35.6349 11.0518 35.5065 11.0936 35.3747 11.0937Z" fill="#E3E4E6"/>
<path d="M30 10.1625C29.8342 10.1625 29.6753 10.0966 29.5581 9.97942C29.4408 9.86221 29.375 9.70324 29.375 9.53748V6.19373C29.375 6.02797 29.4408 5.86899 29.5581 5.75178C29.6753 5.63457 29.8342 5.56873 30 5.56873C30.1658 5.56873 30.3247 5.63457 30.4419 5.75178C30.5592 5.86899 30.625 6.02797 30.625 6.19373V9.53748C30.625 9.61955 30.6088 9.70082 30.5774 9.77665C30.546 9.85248 30.5 9.92138 30.4419 9.97942C30.3839 10.0375 30.315 10.0835 30.2392 10.1149C30.1633 10.1463 30.0821 10.1625 30 10.1625Z" fill="#E3E4E6"/>
</svg>
