<svg width="190" height="73" viewBox="0 0 190 73" fill="none" xmlns="http://www.w3.org/2000/svg">
<path d="M1.54162 19.5057C12.6454 28.1894 31.877 42.2207 47.0751 32.1862C54.4618 27.3092 60.8323 24.5067 62.536 15.174C66.0001 -3.80217 34.9415 -2.73478 31.1395 14.3396C23.5234 48.5437 52.4349 75.049 84.6974 65.8617C99.6197 61.6123 111.867 50.1185 116.299 35.0869C118.382 28.0249 117.95 17.1271 107.86 16.7567C85.4075 15.9325 78.2356 45.6939 92.4019 60.4608C115.208 84.2341 153.267 65.1886 164.801 39.6317C164.868 39.4816 172.64 20.1812 169.18 21.1083C162.344 22.9399 149.101 40.9348 154.767 36.6957C160.38 32.4964 161.47 25.7455 164.789 20.378C166.332 17.8832 184.704 35.1669 188.406 38.0731" stroke="#EE6223" stroke-width="2" stroke-linecap="round"/>
</svg>
