<svg width="298" height="118" viewBox="0 0 298 118" fill="none" xmlns="http://www.w3.org/2000/svg">
<path d="M1.00977 116.811C48.9861 101.89 100.403 79.1045 125.817 32.8069C129.78 25.5873 136.638 6.91433 125.094 2.47874C114.963 -1.41385 96.4648 5.21545 91.0013 14.0323C76.7813 36.9801 65.8944 70.6544 100.639 81.0671C138.463 92.4029 188.991 83.2459 226.53 73.4851C244.739 68.7506 266.285 61.6137 282.429 51.8221C293.145 45.3221 282.685 47.4895 274.719 47.4895C263.388 47.4895 237.226 47.4895 262.31 47.4895C272.503 47.4895 283.645 45.8874 292.789 43.2774C302.566 40.4869 287.75 51.9779 286.284 54.1088C281.661 60.8266 276.405 71.6895 276.405 79.984" stroke="#EE6223" stroke-width="2" stroke-linecap="round"/>
</svg>
