<svg width="203" height="55" viewBox="0 0 203 55" fill="none" xmlns="http://www.w3.org/2000/svg">
<path d="M201.924 27.9079C193.282 13.5068 182.063 -4.83165 163.256 3.44825C149.284 9.5995 147.174 26.952 129.723 26.469C111.813 25.9733 99.9331 10.6955 84.9583 3.44825C69.2442 -4.15673 54.7392 8.98772 46.0501 21.4332C37.0096 34.382 26.6399 39.8365 12.0354 32.9436C-3.68774 25.5228 20.1015 26.469 26.4756 26.469C31.3918 26.469 23.2447 24.8329 20.7798 25.35C14.9387 26.5752 6.94364 23.705 2.00751 25.1102C0.66564 25.4922 5.49586 33.121 5.85819 34.3025C8.06925 41.5122 9.86938 46.053 9.86938 53.8062" stroke="#EE6223" stroke-width="2" stroke-linecap="round"/>
</svg>
