<svg width="163" height="104" viewBox="0 0 163 104" fill="none" xmlns="http://www.w3.org/2000/svg">
<path d="M161.9 102.477C155.64 89.8468 144.362 68.8817 126.32 71.3618C117.551 72.5672 110.595 72.341 105.025 80.0207C93.6994 95.6357 122.169 108.097 132.977 94.3429C154.628 66.7903 140.012 30.3927 106.948 24.7334C91.6547 22.1159 75.6429 27.1874 65.1491 38.8268C60.219 44.2951 55.8982 54.3091 64.8365 59.0038C84.7278 69.4514 104.058 45.7131 97.6659 26.2739C87.3747 -5.02138 44.8228 -4.29582 23.3761 13.7658C23.2502 13.8718 7.90036 27.9176 11.4213 28.577C18.3768 29.8797 38.0972 19.3763 31.1553 20.75C24.2785 22.1107 20.3779 27.7275 15.0646 31.1331C12.595 32.7159 3.49828 9.18976 1.41563 4.96881" stroke="#EE6223" stroke-width="2" stroke-linecap="round"/>
</svg>
