<svg width="60" height="60" viewBox="0 0 60 60" fill="none" xmlns="http://www.w3.org/2000/svg">
<path d="M54.375 7.5H5.625C2.51813 7.5 0 10.0181 0 13.125V43.125C0 46.2319 2.51813 48.75 5.625 48.75H22.5V54.375H19.6875C19.17 54.375 18.75 54.795 18.75 55.3125C18.75 55.83 19.17 56.25 19.6875 56.25H40.3125C40.83 56.25 41.25 55.83 41.25 55.3125C41.25 54.795 40.83 54.375 40.3125 54.375H37.5V48.75H54.375C57.4819 48.75 60 46.2319 60 43.125V13.125C60 10.0181 57.4819 7.5 54.375 7.5ZM35.625 54.375H24.375V48.75H35.625V54.375ZM58.125 43.125C58.125 45.1969 56.4469 46.875 54.375 46.875H5.625C3.55312 46.875 1.875 45.1969 1.875 43.125V13.125C1.875 11.0531 3.55312 9.375 5.625 9.375H54.375C56.4469 9.375 58.125 11.0531 58.125 13.125V43.125ZM48.3844 16.9312C46.9181 16.6425 45.6187 17.4937 45.1725 18.75H33.75V16.875H26.25V18.75H14.8275C14.3812 17.4937 13.08 16.6425 11.6156 16.9312C10.5413 17.1431 9.66562 18.0037 9.44062 19.0762C9.05625 20.8969 10.4344 22.5 12.1875 22.5C13.41 22.5 14.4412 21.7144 14.8275 20.625H26.25V21.045C18.0225 22.7269 11.7281 29.7787 11.2762 38.3812C11.2481 38.9194 11.6756 39.375 12.2156 39.375C12.7087 39.375 13.1231 38.9925 13.1475 38.4994C13.5394 30.8775 19.0237 24.6056 26.25 22.9575V24.375H33.75V22.9556C40.9763 24.6056 46.4606 30.8775 46.8525 38.4975C46.8788 38.9925 47.2913 39.375 47.7844 39.375C48.3244 39.375 48.7519 38.9194 48.7238 38.3812C48.2719 29.7787 41.9775 22.7269 33.75 21.045V20.625H45.1725C45.5606 21.7144 46.59 22.5 47.8125 22.5C49.5656 22.5 50.9437 20.8969 50.5612 19.0762C50.3344 18.0037 49.4588 17.1431 48.3844 16.9312ZM12.1875 20.625C11.67 20.625 11.25 20.205 11.25 19.6875C11.25 19.17 11.67 18.75 12.1875 18.75C12.705 18.75 13.125 19.17 13.125 19.6875C13.125 20.205 12.705 20.625 12.1875 20.625ZM31.875 22.5H28.125V18.75H31.875V22.5ZM47.8125 20.625C47.295 20.625 46.875 20.205 46.875 19.6875C46.875 19.17 47.295 18.75 47.8125 18.75C48.33 18.75 48.75 19.17 48.75 19.6875C48.75 20.205 48.33 20.625 47.8125 20.625Z" fill="#E3E4E6"/>
</svg>
