<svg width="40" height="40" viewBox="0 0 40 40" fill="none" xmlns="http://www.w3.org/2000/svg">
<path d="M3.59375 20C3.59375 24.3512 5.32226 28.5242 8.39903 31.601C11.4758 34.6777 15.6488 36.4062 20 36.4062C24.3512 36.4062 28.5242 34.6777 31.601 31.601C34.6777 28.5242 36.4062 24.3512 36.4062 20C36.4062 15.6488 34.6777 11.4758 31.601 8.39903C28.5242 5.32226 24.3512 3.59375 20 3.59375C15.6488 3.59375 11.4758 5.32226 8.39903 8.39903C5.32226 11.4758 3.59375 15.6488 3.59375 20Z" stroke="#00E19A" stroke-miterlimit="10"/>
<path d="M13.9375 4.75C16.8271 8.00973 19.2848 11.628 21.25 15.5156C22.181 17.3199 23.0053 19.1773 23.7188 21.0781C25.4092 25.4975 26.5379 30.1118 27.0781 34.8125" stroke="#00E19A" stroke-miterlimit="10"/>
<path d="M31.9844 8.78125C28.9597 11.8065 25.29 14.1087 21.25 15.5156C15.6531 17.6852 9.66965 18.6797 3.67188 18.4375" stroke="#00E19A" stroke-miterlimit="10"/>
<path d="M36.2812 21.8907C32.2428 20.6064 27.9519 20.3275 23.7812 21.0782C20.6354 21.6741 17.675 23.0053 15.1415 24.9631C12.608 26.9209 10.5732 29.4499 9.20312 32.3438" stroke="#00E19A" stroke-miterlimit="10"/>
</svg>
