<svg width="40" height="30" viewBox="0 0 40 30" fill="none" xmlns="http://www.w3.org/2000/svg">
<path fill-rule="evenodd" clip-rule="evenodd" d="M20.8359 14.6542C22.7553 16.7656 25.7123 18.178 28.574 19.1053C30.7221 19.8016 32.9182 20.5063 34.7839 21.5172C36.427 22.4083 37.8127 23.538 38.6807 25.1104C39.0306 25.7426 39.2955 26.447 39.4608 27.2353C39.5444 26.7556 39.5999 26.2969 39.6283 25.8574C39.9195 21.392 37.4571 18.9257 34.2629 17.0941C32.9213 16.3254 31.4496 15.6679 29.9992 15.0211C29.4861 14.7932 28.9751 14.5652 28.4741 14.3355C25.9544 13.1774 23.6702 11.9418 22.4658 10.059C20.2029 6.52415 22.7318 2.44598 26.3192 1.43078C30.7715 0.170955 34.5218 2.48827 37.0013 6.10455C37.434 6.70834 37.828 7.41416 38.19 8.21528C38.2956 8.44817 38.4033 8.70634 38.5132 8.98654H39.9355L39.7915 0.220396H39.1049C38.5719 1.02757 38.0819 1.60505 37.6434 1.96808C37.199 2.33005 36.7534 2.50819 36.2898 2.50819C35.8453 2.50819 35.0701 2.22799 33.9636 1.66866C30.8177 0.109449 27.8131 -0.365275 24.6288 0.958235C22.6273 1.78957 20.9539 3.22684 19.8985 4.98803C19.2755 3.28942 18.2526 1.81695 16.5884 0.922668C14.1381 -0.405789 10.8554 -0.13555 8.30622 0.702206L8.60774 1.36537C11.324 0.613287 13.8639 1.98834 14.9716 4.57271C15.6774 6.21764 15.5686 8.12746 14.7661 9.46123C13.108 12.2198 7.95351 12.6391 4.70277 14.5645C2.6699 15.7689 0.999774 17.3765 0.336247 19.5092C-0.934612 23.5966 1.53774 27.7271 5.38301 29.3247C8.29094 30.5333 11.0823 30.0163 13.9557 28.5918C17.1449 26.9793 19.208 29.607 22.3115 28.6807C24.1289 28.1374 25.7144 26.7876 26.1369 24.8586L25.3536 24.557C24.9727 25.9449 23.4498 26.6344 22.2209 25.7315C20.9632 24.806 20.8359 23.0131 20.8359 21.5848V14.6542ZM15.4143 15.7106V22.5374C15.4143 26.7727 12.0559 30.2482 6.97462 28.8099C3.69793 27.8825 1.38771 24.1582 3.45401 20.9295C4.55452 19.2099 6.64107 18.0813 8.9424 17.0238C9.40001 16.8133 9.86657 16.6056 10.3352 16.3969C11.6598 15.8063 13.0031 15.2064 14.2288 14.5031C17.2751 12.7572 18.781 10.4711 19.4832 7.11373C19.9419 10.8288 18.7387 13.2329 15.4143 15.7106Z" fill="#1FADA1"/>
<path fill-rule="evenodd" clip-rule="evenodd" d="M5.07398 9.71828C6.09626 9.61124 6.93472 8.9641 7.33299 8.02181C7.71879 7.0852 7.58474 6.03089 6.98095 5.21984C6.61113 4.75796 6.22215 4.50798 5.66175 4.36892C5.28271 4.27431 4.92178 4.16447 5.0832 3.75413C5.18596 3.49419 5.45513 3.18163 5.89642 2.81077L5.53586 2.14832C4.37348 2.93379 3.2125 3.92659 2.4878 5.14624C2.12974 5.74789 1.91924 6.4089 1.99178 7.11759C2.15394 8.70917 3.49273 9.88258 5.07398 9.71828Z" fill="#1FADA1"/>
</svg>
