<svg width="35" height="36" viewBox="0 0 35 36" fill="none" xmlns="http://www.w3.org/2000/svg">
<path d="M17.5003 12.8958V2.6875H12.3962C11.7259 2.6875 11.0621 2.81952 10.4429 3.07603C9.82361 3.33254 9.26093 3.70851 8.78697 4.18248C8.313 4.65644 7.93703 5.21912 7.68052 5.83839C7.42402 6.45765 7.29199 7.12138 7.29199 7.79167C7.29199 8.46195 7.42402 9.12568 7.68052 9.74495C7.93703 10.3642 8.313 10.9269 8.78697 11.4009C9.26093 11.8748 9.82361 12.2508 10.4429 12.5073C11.0621 12.7638 11.7259 12.8958 12.3962 12.8958H17.5003Z" stroke="#00E19A" stroke-linejoin="round"/>
<path d="M17.5003 23.1043V12.896H12.3962C11.7259 12.896 11.0621 13.028 10.4429 13.2845C9.82361 13.541 9.26093 13.917 8.78697 14.391C8.313 14.8649 7.93703 15.4276 7.68052 16.0469C7.42402 16.6661 7.29199 17.3299 7.29199 18.0002C7.29199 18.6705 7.42402 19.3342 7.68052 19.9534C7.93703 20.5727 8.313 21.1354 8.78697 21.6094C9.26093 22.0833 9.82361 22.4593 10.4429 22.7158C11.0621 22.9723 11.7259 23.1043 12.3962 23.1043H17.5003Z" stroke="#00E19A" stroke-linejoin="round"/>
<path d="M17.5 12.8958H22.6042C23.2745 12.8958 23.9382 12.7638 24.5574 12.5073C25.1767 12.2508 25.7394 11.8748 26.2134 11.4009C26.6873 10.9269 27.0633 10.3642 27.3198 9.74495C27.5763 9.12568 27.7083 8.46195 27.7083 7.79167C27.7083 7.12138 27.5763 6.45765 27.3198 5.83839C27.0633 5.21912 26.6873 4.65644 26.2134 4.18248C25.7394 3.70851 25.1767 3.33254 24.5574 3.07603C23.9382 2.81952 23.2745 2.6875 22.6042 2.6875H17.5V12.8958Z" stroke="#00E19A" stroke-linejoin="round"/>
<path d="M22.6042 12.896C21.9339 12.896 21.2702 13.028 20.6509 13.2845C20.0316 13.541 19.4689 13.917 18.995 14.391C18.521 14.8649 18.145 15.4276 17.8885 16.0469C17.632 16.6661 17.5 17.3299 17.5 18.0002C17.5 18.6705 17.632 19.3342 17.8885 19.9534C18.145 20.5727 18.521 21.1354 18.995 21.6094C19.4689 22.0833 20.0316 22.4593 20.6509 22.7158C21.2702 22.9723 21.9339 23.1043 22.6042 23.1043C23.9579 23.1043 25.2561 22.5666 26.2134 21.6094C27.1706 20.6521 27.7083 19.3539 27.7083 18.0002C27.7083 16.6465 27.1706 15.3482 26.2134 14.391C25.2561 13.4338 23.9579 12.896 22.6042 12.896Z" stroke="#00E19A"/>
<path d="M17.5003 28.2082V23.104H12.3962C11.3867 23.104 10.3998 23.4034 9.56044 23.9642C8.72106 24.5251 8.06685 25.3222 7.68053 26.2549C7.2942 27.1876 7.19312 28.2138 7.39007 29.2039C7.58701 30.1941 8.07314 31.1035 8.78697 31.8174C9.5008 32.5312 10.4103 33.0173 11.4004 33.2143C12.3905 33.4112 13.4168 33.3101 14.3494 32.9238C15.2821 32.5375 16.0793 31.8833 16.6401 31.0439C17.201 30.2045 17.5003 29.2177 17.5003 28.2082Z" stroke="#00E19A" stroke-linejoin="round"/>
</svg>
