<svg width="515" height="594" viewBox="0 0 515 594" fill="none" xmlns="http://www.w3.org/2000/svg">
<line x1="484.451" y1="578.069" x2="484.451" y2="85.3447" stroke="#6A737D" stroke-opacity="0.08" stroke-width="1.5"/>
<line x1="423.055" y1="578.069" x2="423.055" y2="85.3447" stroke="#6A737D" stroke-opacity="0.08" stroke-width="1.5"/>
<line x1="361.652" y1="578.069" x2="361.652" y2="85.3447" stroke="#6A737D" stroke-opacity="0.08" stroke-width="1.5"/>
<line x1="300.256" y1="578.069" x2="300.256" y2="85.3447" stroke="#6A737D" stroke-opacity="0.08" stroke-width="1.5"/>
<line x1="238.855" y1="578.069" x2="238.855" y2="85.3447" stroke="#6A737D" stroke-opacity="0.08" stroke-width="1.5"/>
<line x1="177.459" y1="578.069" x2="177.459" y2="85.3447" stroke="#6A737D" stroke-opacity="0.08" stroke-width="1.5"/>
<line x1="85.3437" y1="484.454" x2="578.068" y2="484.454" stroke="#6A737D" stroke-opacity="0.08" stroke-width="1.5"/>
<line x1="85.3437" y1="423.055" x2="578.068" y2="423.055" stroke="#6A737D" stroke-opacity="0.08" stroke-width="1.5"/>
<line x1="85.3437" y1="361.656" x2="578.068" y2="361.656" stroke="#6A737D" stroke-opacity="0.08" stroke-width="1.5"/>
<line x1="85.3437" y1="300.258" x2="578.068" y2="300.258" stroke="#6A737D" stroke-opacity="0.08" stroke-width="1.5"/>
<line x1="85.3437" y1="238.859" x2="578.068" y2="238.859" stroke="#6A737D" stroke-opacity="0.08" stroke-width="1.5"/>
<line x1="85.3437" y1="177.46" x2="578.068" y2="177.46" stroke="#6A737D" stroke-opacity="0.08" stroke-width="1.5"/>
<rect x="578.068" y="594" width="492.724" height="85.3448" transform="rotate(180 578.068 594)" fill="url(#paint0_linear_158_950)"/>
<rect width="480" height="155" transform="matrix(-1 8.74228e-08 8.74228e-08 1 565 0)" fill="url(#paint1_linear_158_950)"/>
<rect width="492.724" height="154.759" transform="matrix(1.31134e-07 1 1 -1.31134e-07 0 83.6382)" fill="url(#paint2_linear_158_950)"/>
<rect x="593" y="84" width="492" height="85" transform="rotate(90 593 84)" fill="url(#paint3_linear_158_950)"/>
<defs>
<linearGradient id="paint0_linear_158_950" x1="824.43" y1="594" x2="824.43" y2="679.345" gradientUnits="userSpaceOnUse">
<stop stop-color="#010101"/>
<stop offset="1" stop-opacity="0.24"/>
</linearGradient>
<linearGradient id="paint1_linear_158_950" x1="240" y1="0" x2="240" y2="155" gradientUnits="userSpaceOnUse">
<stop stop-color="#010101"/>
<stop offset="1" stop-opacity="0"/>
</linearGradient>
<linearGradient id="paint2_linear_158_950" x1="246.362" y1="0" x2="246.362" y2="154.759" gradientUnits="userSpaceOnUse">
<stop stop-color="#010101"/>
<stop offset="1" stop-opacity="0"/>
</linearGradient>
<linearGradient id="paint3_linear_158_950" x1="839" y1="84" x2="839" y2="169" gradientUnits="userSpaceOnUse">
<stop stop-color="#010101"/>
<stop offset="1" stop-opacity="0"/>
</linearGradient>
</defs>
</svg>
