<svg width="67" height="191" viewBox="0 0 67 191" fill="none" xmlns="http://www.w3.org/2000/svg">
<path d="M43.2039 1.36729C35.521 13.1856 23.2193 33.567 34.5402 47.8327C40.0425 54.7662 43.3895 60.8682 52.8352 61.752C72.041 63.549 68.2708 32.7016 50.93 30.4023C16.1923 25.7962 -7.69235 56.9078 4.27182 88.2468C9.80558 102.742 22.3231 113.941 37.6838 117.046C44.9004 118.505 55.7191 117.125 55.2087 107.042C54.0729 84.6026 23.7997 80.0519 10.3237 95.4513C-11.3715 120.243 10.9186 156.497 37.3835 165.759C37.5389 165.813 57.4432 171.873 56.218 168.507C53.7977 161.857 34.717 150.232 39.4338 155.508C44.1063 160.733 50.9266 161.231 56.5629 164.07C59.1827 165.389 43.566 185.197 40.9935 189.139" stroke="#E3E4E6" stroke-width="2" stroke-linecap="round"/>
</svg>
