<svg width="60" height="60" viewBox="0 0 60 60" fill="none" xmlns="http://www.w3.org/2000/svg">
<g clip-path="url(#clip0_420_569)">
<path d="M54.3752 6.56245C54.3752 7.07995 53.9552 7.49995 53.4377 7.49995C52.9202 7.49995 52.5002 7.07995 52.5002 6.56245C52.5002 6.04495 52.9202 5.62495 53.4377 5.62495C53.9552 5.62495 54.3752 6.04495 54.3752 6.56245ZM49.6877 5.62495C49.1702 5.62495 48.7502 6.04495 48.7502 6.56245C48.7502 7.07995 49.1702 7.49995 49.6877 7.49995C50.2052 7.49995 50.6252 7.07995 50.6252 6.56245C50.6252 6.04495 50.2052 5.62495 49.6877 5.62495ZM45.9377 5.62495C45.4202 5.62495 45.0002 6.04495 45.0002 6.56245C45.0002 7.07995 45.4202 7.49995 45.9377 7.49995C46.4552 7.49995 46.8752 7.07995 46.8752 6.56245C46.8752 6.04495 46.4552 5.62495 45.9377 5.62495ZM58.1252 56.925H1.8752C1.50207 56.925 1.2002 56.6231 1.2002 56.25V3.74995C1.2002 3.37683 1.50207 3.07495 1.8752 3.07495H58.1252C58.4983 3.07495 58.8002 3.37683 58.8002 3.74995V56.25C58.8002 56.6231 58.4983 56.925 58.1252 56.925ZM2.5502 55.575H57.4502V10.05H2.5502V55.575ZM2.5502 8.69995H57.4502V4.42495H2.5502V8.69995ZM25.3127 45.2662L24.0714 44.7356L35.3214 18.4856L36.5627 19.0162L25.3127 45.2662ZM40.1702 39.8531L39.2139 38.8968L46.2377 31.875L39.2139 24.8512L40.1702 23.8968L47.6702 31.3968C47.9346 31.6612 47.9346 32.0887 47.6702 32.3512L40.1702 39.8531ZM20.4658 39.8531L12.9658 32.3531C12.7014 32.0887 12.7014 31.6612 12.9658 31.3987L20.4658 23.8987L21.4202 24.8531L14.3964 31.875L21.4183 38.8968L20.4658 39.8531Z" fill="#E3E4E6"/>
</g>
<defs>
<clipPath id="clip0_420_569">
<rect width="60" height="60" fill="white"/>
</clipPath>
</defs>
</svg>
