<svg width="36" height="57" viewBox="0 0 36 57" fill="none" xmlns="http://www.w3.org/2000/svg">
<path d="M34.5 18.4837C34.5 27.8769 27.0996 35.4674 18 35.4674C8.90043 35.4674 1.5 27.8769 1.5 18.4837C1.5 9.09055 8.90043 1.5 18 1.5C27.0996 1.5 34.5 9.09055 34.5 18.4837Z" stroke="#E3E4E6"/>
<path d="M18.0005 35.0137C26.8772 35.0137 34.0732 27.613 34.0732 18.4837C34.0732 9.3544 26.8772 1.95364 18.0005 1.95364C9.12374 1.95364 1.92773 9.3544 1.92773 18.4837C1.92773 27.613 9.12374 35.0137 18.0005 35.0137Z" stroke="#E3E4E6" stroke-width="3"/>
<path d="M17.751 54.5912V20.9417" stroke="#E3E4E6" stroke-width="3" stroke-miterlimit="10" stroke-linecap="round"/>
<path d="M17.8142 54.5942L11.5088 48.4013" stroke="#E3E4E6" stroke-width="3.00121" stroke-miterlimit="10" stroke-linecap="round"/>
<path d="M17.7508 54.5912L24.0562 48.3984" stroke="#E3E4E6" stroke-width="3.00121" stroke-miterlimit="10" stroke-linecap="round"/>
</svg>
