<svg width="40" height="40" viewBox="0 0 40 40" fill="none" xmlns="http://www.w3.org/2000/svg">
<g clip-path="url(#clip0_478_503)">
<path d="M26.667 6.6665H13.3337C9.65176 6.6665 6.66699 9.65127 6.66699 13.3332V26.6665C6.66699 30.3484 9.65176 33.3332 13.3337 33.3332H26.667C30.3489 33.3332 33.3337 30.3484 33.3337 26.6665V13.3332C33.3337 9.65127 30.3489 6.6665 26.667 6.6665Z" stroke="#00E19A" stroke-linecap="round" stroke-linejoin="round"/>
<path d="M20 25C22.7614 25 25 22.7614 25 20C25 17.2386 22.7614 15 20 15C17.2386 15 15 17.2386 15 20C15 22.7614 17.2386 25 20 25Z" stroke="#00E19A" stroke-linecap="round" stroke-linejoin="round"/>
<path d="M27.5 12.5V12.501" stroke="#00E19A" stroke-linecap="round" stroke-linejoin="round"/>
</g>
<defs>
<clipPath id="clip0_478_503">
<rect width="40" height="40" fill="white"/>
</clipPath>
</defs>
</svg>
