<svg width="64" height="61" viewBox="0 0 64 61" fill="none" xmlns="http://www.w3.org/2000/svg">
<path d="M63.352 37.9633L59.8321 32.0874C61.3929 30.968 62.5229 29.3778 62.9956 27.4937C63.5244 25.3871 63.2008 23.2004 62.084 21.3365L55.0601 9.60298C52.8731 5.94905 48.2506 4.63971 44.4966 6.48768L40.9937 0.640159C40.8595 0.415897 40.6241 0.29427 40.3465 0.315955C40.0873 0.342894 39.8664 0.517859 39.7796 0.765154C39.0683 2.81598 38.022 4.91044 36.6996 7.00409C34.4025 3.95965 31.5976 1.49774 27.6744 1.03669V0.95911H3.4298C1.57253 0.95911 0.0625 2.46982 0.0625 4.32641V21.8364C0.0625 23.693 1.57253 25.2037 3.4298 25.2037H16.9111L13.1726 27.7896C11.5403 28.9287 10.004 30.2289 8.6071 31.6548C7.60297 32.6757 7.40928 34.234 8.11951 35.464L7.62842 35.758C4.95694 37.3575 4.29533 41.1819 6.15126 44.2828L8.41759 48.0678C9.72114 50.244 11.9229 51.4949 14.0446 51.4949C14.9456 51.4949 15.8335 51.2686 16.6292 50.7925L17.1226 50.4971C17.7128 51.4396 18.7353 51.9907 19.8084 51.9907C20.1083 51.9907 20.4108 51.948 20.7093 51.8598C21.8407 51.534 22.9294 51.1341 23.9896 50.6955C24.8155 50.86 27.9362 51.6442 30.7074 54.4845C32.1924 56.0064 33.3013 57.8584 33.9129 59.8387C33.9998 60.1215 34.2615 60.3135 34.5561 60.3135H34.5613L46.5363 60.2234C46.7783 60.2213 47.0019 60.0892 47.1189 59.8775C47.2373 59.6657 47.2321 59.4066 47.1057 59.1994C46.7927 58.6859 46.4849 58.1715 46.1758 57.6538C43.8283 53.7257 41.3961 49.6673 35.8844 44.7371L39.3887 42.9437C39.5467 42.8686 51.6453 37.2351 62.6691 38.9745C62.9335 39.016 63.1861 38.9021 63.3321 38.6857C63.4794 38.4687 63.4863 38.1876 63.352 37.9633ZM53.9051 10.2949L60.9291 22.0285C62.7318 25.0398 61.8951 28.8765 59.1383 30.9296L45.206 7.6723C48.3196 6.20523 52.1 7.28223 53.9051 10.2949ZM1.40942 21.8365V4.32655C1.40942 3.21251 2.31576 2.30617 3.4298 2.30617H26.3275C32.5307 2.30617 35.9888 7.94775 39.0153 13.0815C35.9966 18.2009 32.5385 23.8569 26.3275 23.8569H3.4298C2.31576 23.8569 1.40942 22.9506 1.40942 21.8365ZM9.57244 47.376L7.30611 43.591C5.83163 41.1274 6.28676 38.1317 8.3202 36.9144L8.80739 36.6226L16.4245 49.3448L15.9374 49.6364C13.9 50.8545 11.0483 49.8377 9.57244 47.376ZM45.0199 58.3454L45.3434 58.886L35.0428 58.9629C34.3431 56.9603 33.1842 55.0958 31.6703 53.5444C29.6218 51.4444 27.4147 50.3713 25.8859 49.8327C26.0108 49.7703 26.1475 49.7216 26.2708 49.6574L34.5976 45.3961C40.2339 50.3494 42.671 54.414 45.0199 58.3454ZM25.654 48.4598C24.0046 49.316 22.2157 50.025 20.332 50.567C19.5297 50.8038 18.6721 50.473 18.2446 49.7626L9.30022 34.8235C8.87015 34.1106 8.9806 33.1958 9.56853 32.5986C10.9075 31.232 12.3794 29.9857 13.9408 28.8959L19.2777 25.2037H26.3273C26.9031 25.2037 27.4488 25.149 27.9812 25.0707L38.1497 42.0651L25.654 48.4598ZM39.3666 41.4765L29.37 24.7697C34.5527 23.2818 37.6202 18.1045 40.3767 13.4232C40.5016 13.2122 40.4884 12.9293 40.3648 12.7189C39.4792 11.2156 38.5589 9.66022 37.5481 8.18925C38.7795 6.29965 39.7925 4.40251 40.5542 2.5276L61.4801 37.4601C51.6776 36.421 41.781 40.417 39.3666 41.4765ZM23.7112 8.62713L13.3791 18.5094C13.2489 18.6344 13.0805 18.6962 12.9135 18.6962C12.736 18.6962 12.5596 18.6264 12.4268 18.4883C12.1704 18.2194 12.1795 17.7932 12.4478 17.5361L22.7799 7.65385C23.0496 7.39672 23.4744 7.40723 23.7322 7.67486C23.9887 7.94384 23.9795 8.37 23.7112 8.62713ZM14.8786 11.7346C16.3636 11.7346 17.5725 10.5264 17.5725 9.04077C17.5725 7.55512 16.3636 6.34693 14.8786 6.34693C13.3937 6.34693 12.1848 7.55512 12.1848 9.04077C12.1848 10.5264 13.3937 11.7346 14.8786 11.7346ZM14.8786 7.69385C15.6219 7.69385 16.2256 8.29821 16.2256 9.04077C16.2256 9.78333 15.6219 10.3877 14.8786 10.3877C14.1354 10.3877 13.5317 9.78333 13.5317 9.04077C13.5317 8.29821 14.1354 7.69385 14.8786 7.69385ZM21.6132 14.4285C20.1283 14.4285 18.9194 15.6366 18.9194 17.1223C18.9194 18.608 20.1283 19.8161 21.6132 19.8161C23.0982 19.8161 24.3071 18.608 24.3071 17.1223C24.3071 15.6366 23.0982 14.4285 21.6132 14.4285ZM21.6132 18.4692C20.87 18.4692 20.2663 17.8649 20.2663 17.1223C20.2663 16.3797 20.87 15.7754 21.6132 15.7754C22.3565 15.7754 22.9602 16.3797 22.9602 17.1223C22.9602 17.8649 22.3565 18.4692 21.6132 18.4692Z" fill="#E3E4E6"/>
</svg>
