<svg width="60" height="60" viewBox="0 0 60 60" fill="none" xmlns="http://www.w3.org/2000/svg">
<g clip-path="url(#clip0_425_594)">
<path d="M50 49C50 49.552 49.552 50 49 50C48.448 50 48 49.552 48 49C48 48.448 48.448 48 49 48C49.552 48 50 48.448 50 49ZM47 24H51C51.554 24 52 24.446 52 25C52 25.554 51.554 26 51 26H47C46.446 26 46 25.554 46 25C46 24.446 46.446 24 47 24ZM41 20C39.356 20 38 21.356 38 23V51C38 52.644 39.356 54 41 54H57C58.644 54 60 52.644 60 51V23C60 21.356 58.644 20 57 20H41ZM41 22H57C57.572 22 58 22.428 58 23V51C58 51.572 57.572 52 57 52H41C40.428 52 40 51.572 40 51V23C40 22.428 40.428 22 41 22ZM28 39C28 39.552 27.552 40 27 40C26.448 40 26 39.552 26 39C26 38.448 26.448 38 27 38C27.552 38 28 38.448 28 39ZM3 6C1.356 6 0 7.356 0 9V41C0 42.644 1.356 44 3 44H22V48H19C18.446 48 18 48.446 18 49C18 49.554 18.446 50 19 50H35C35.554 50 36 49.554 36 49C36 48.446 35.554 48 35 48H32V44H35C36.336 44 36.312 42 35 42H3C2.428 42 2 41.572 2 41V36H35C35.554 36 36 35.554 36 35C36 34.446 35.554 34 35 34H2V9C2 8.428 2.428 8 3 8H51C51.572 8 52 8.428 52 9V17C52 18.33 54 18.314 54 17V9C54 7.356 52.644 6 51 6H3ZM24 44H30V48H24V44Z" fill="#E3E4E6"/>
</g>
<defs>
<clipPath id="clip0_425_594">
<rect width="60" height="60" fill="white"/>
</clipPath>
</defs>
</svg>
