<svg width="40" height="40" viewBox="0 0 40 40" fill="none" xmlns="http://www.w3.org/2000/svg">
<path d="M14.0312 23.7344C14.0312 25.7812 16.7031 27.4531 20 27.4531C23.2969 27.4531 25.9687 25.7812 25.9687 23.7344C25.9687 21.6875 23.2969 20 20 20C16.7031 20 14.0312 18.3281 14.0312 16.2656C14.0312 14.2031 16.7031 12.5469 20 12.5469C23.2969 12.5469 25.9687 14.2187 25.9687 16.2656" stroke="#00E19A" stroke-miterlimit="10"/>
<path d="M34.3902 23.875C34.9977 21.6644 35.0855 19.3433 34.6466 17.0931C34.2078 14.843 33.2543 12.7249 31.8607 10.9045C30.467 9.08419 28.6711 7.61101 26.6134 6.60024C24.5557 5.58947 22.2921 5.06852 19.9995 5.07816C18.6903 5.08608 17.3876 5.26466 16.1245 5.60941C14.7198 4.26564 12.8448 3.52528 10.9009 3.54684C8.95704 3.56841 7.09889 4.35018 5.72429 5.72478C4.34969 7.09938 3.56792 8.95753 3.54636 10.9014C3.52479 12.8452 4.26515 14.7203 5.60892 16.125C5.01001 18.3326 4.92882 20.6486 5.37168 22.8927C5.81454 25.1368 6.76949 27.2483 8.16214 29.0628C9.55479 30.8774 11.3475 32.3459 13.4008 33.354C15.454 34.3622 17.7122 34.8827 19.9995 34.875C21.3088 34.8671 22.6115 34.6885 23.8745 34.3438C25.2793 35.6876 27.1543 36.4279 29.0982 36.4063C31.042 36.3848 32.9002 35.603 34.2748 34.2284C35.6494 32.8538 36.4312 30.9957 36.4527 29.0518C36.4743 27.108 35.7339 25.2329 34.3902 23.8282V23.875Z" stroke="#00E19A" stroke-miterlimit="10"/>
</svg>
