<svg width="35" height="36" viewBox="0 0 35 36" fill="none" xmlns="http://www.w3.org/2000/svg">
<path d="M8.75004 13.625C8.75004 4.14583 14.5834 2.6875 17.5 2.6875C20.4167 2.6875 26.25 4.14583 26.25 13.625L27.6573 13.0621C28.2744 12.8118 28.9635 12.8058 29.5848 13.0453C30.2061 13.2848 30.7129 13.7518 31.0024 14.3514C31.2918 14.9511 31.3421 15.6384 31.1431 16.2739C30.9441 16.9093 30.5107 17.4451 29.9309 17.7725L26.25 19.4583C26.8859 20.9429 29.7442 23.9456 32.3998 25.4608C33.0328 25.8225 33.3653 26.5692 32.8023 27.0329C32.0236 27.6746 30.7125 28.2083 29.1667 28.2083C29.1667 31.125 25.5209 29.7833 24.0625 30.3958C22.6042 31.0083 20.4167 33.3125 17.5 33.3125C14.5834 33.3125 12.3959 31.0083 10.9375 30.3958C9.47921 29.7833 5.83338 31.125 5.83338 28.2083C4.28754 28.2083 2.9765 27.6746 2.19775 27.0329C1.63484 26.5692 1.96734 25.8225 2.60025 25.4608C5.25588 23.9442 8.11275 20.9429 8.75004 19.4583L5.06921 17.7725C4.48812 17.4456 4.05347 16.9096 3.85374 16.2735C3.65402 15.6374 3.70426 14.9491 3.99421 14.3487C4.28417 13.7484 4.79205 13.2811 5.41444 13.042C6.03682 12.803 6.72692 12.8102 7.34421 13.0621L8.75004 13.625Z" stroke="#00E19A" stroke-linecap="round" stroke-linejoin="round"/>
</svg>
