<svg width="100" height="45" viewBox="0 0 100 45" fill="none" xmlns="http://www.w3.org/2000/svg">
<g clip-path="url(#clip0_152_829)">
<path d="M47.917 22.4998C47.917 34.6686 37.3123 44.5832 24.167 44.5832C11.0217 44.5832 0.416992 34.6686 0.416992 22.4998C0.416992 10.3311 11.0217 0.416504 24.167 0.416504C37.3123 0.416504 47.917 10.3311 47.917 22.4998Z" stroke="white"/>
<path d="M61.25 22.4998C61.25 34.6686 50.6453 44.5832 37.5 44.5832C24.3547 44.5832 13.75 34.6686 13.75 22.4998C13.75 10.3311 24.3547 0.416504 37.5 0.416504C50.6453 0.416504 61.25 10.3311 61.25 22.4998Z" stroke="white"/>
<path d="M74.583 22.4998C74.583 34.6686 63.9783 44.5832 50.833 44.5832C37.6877 44.5832 27.083 34.6686 27.083 22.4998C27.083 10.3311 37.6877 0.416504 50.833 0.416504C63.9783 0.416504 74.583 10.3311 74.583 22.4998Z" stroke="white"/>
<path d="M86.25 22.4998C86.25 34.6686 75.6453 44.5832 62.5 44.5832C49.3547 44.5832 38.75 34.6686 38.75 22.4998C38.75 10.3311 49.3547 0.416504 62.5 0.416504C75.6453 0.416504 86.25 10.3311 86.25 22.4998Z" stroke="white"/>
<path d="M99.583 22.4998C99.583 34.6686 88.978 44.5832 75.833 44.5832C62.6877 44.5832 52.083 34.6686 52.083 22.4998C52.083 10.3311 62.6877 0.416504 75.833 0.416504C88.978 0.416504 99.583 10.3311 99.583 22.4998Z" stroke="white"/>
</g>
<defs>
<clipPath id="clip0_152_829">
<rect width="100" height="45" fill="white"/>
</clipPath>
</defs>
</svg>
