<svg width="57" height="60" viewBox="0 0 57 60" fill="none" xmlns="http://www.w3.org/2000/svg">
<path d="M29.2859 16.2709C28.7691 16.0871 28.2047 16.0871 27.6879 16.2709C27.349 16.3903 27.041 16.5838 26.7864 16.8374L19.1053 24.5104C18.7876 24.8265 18.5647 25.2251 18.4617 25.6612C18.3588 26.0973 18.3798 26.5536 18.5226 26.9784L19.7957 30.7925L21.3185 30.2849L20.0474 26.4687C20.0003 26.3272 19.9934 26.1753 20.0277 26.0301C20.0619 25.8848 20.1359 25.752 20.2413 25.6464L27.6828 18.213V27.4657C26.9343 27.6612 26.2827 28.1227 25.8498 28.7639C25.417 29.4051 25.2326 30.1821 25.3311 30.9494C25.4297 31.7167 25.8045 32.4219 26.3853 32.9329C26.9661 33.4439 27.7133 33.7257 28.4869 33.7257C29.2605 33.7257 30.0077 33.4439 30.5885 32.9329C31.1693 32.4219 31.5441 31.7167 31.6426 30.9494C31.7412 30.1821 31.5568 29.4051 31.124 28.7639C30.6911 28.1227 30.0395 27.6612 29.2909 27.4657V18.2141L36.7314 25.6556C36.8369 25.7611 36.9108 25.894 36.9451 26.0392C36.9793 26.1844 36.9725 26.3363 36.9253 26.4779L32.6615 39.2594H24.3022L22.2606 33.1255C22.2322 33.0195 22.1825 32.9205 22.1145 32.8346C22.0464 32.7486 21.9615 32.6774 21.865 32.6254C21.7684 32.5735 21.6622 32.5418 21.553 32.5324C21.4437 32.523 21.3337 32.536 21.2297 32.5707C21.1256 32.6053 21.0298 32.6609 20.948 32.734C20.8663 32.8071 20.8004 32.8961 20.7543 32.9956C20.7082 33.0952 20.683 33.203 20.6801 33.3127C20.6773 33.4223 20.6969 33.5313 20.7378 33.6331L22.6413 39.3436C22.0426 39.4951 21.5115 39.8417 21.1319 40.3287C20.7522 40.8158 20.5457 41.4154 20.5449 42.0329V42.8451C20.5457 43.5807 20.8383 44.286 21.3584 44.8061C21.8786 45.3263 22.5839 45.6189 23.3195 45.6197H24.1124V51.2379C24.1122 51.5547 24.1745 51.8684 24.2957 52.1611C24.4169 52.4538 24.5945 52.7198 24.8186 52.9438C25.0426 53.1678 25.3085 53.3455 25.6012 53.4667C25.894 53.5878 26.2077 53.6501 26.5245 53.65H30.4463C30.7631 53.6501 31.0768 53.5878 31.3695 53.4667C31.6622 53.3455 31.9282 53.1678 32.1522 52.9438C32.3762 52.7198 32.5539 52.4538 32.6751 52.1611C32.7962 51.8684 32.8585 51.5547 32.8584 51.2379V45.6197H33.6513C34.3869 45.6189 35.0922 45.3263 35.6123 44.8061C36.1325 44.286 36.425 43.5807 36.4258 42.8451V42.0329C36.4251 41.4154 36.2185 40.8158 35.8389 40.3287C35.4592 39.8417 34.9281 39.4951 34.3294 39.3436L38.4512 26.9835C38.5952 26.558 38.617 26.1007 38.5139 25.6635C38.4109 25.2263 38.1873 24.8268 37.8685 24.5104L30.1914 16.8334C29.9372 16.5799 29.6295 16.3863 29.2909 16.2669L29.2859 16.2709ZM31.2513 51.2399C31.2513 51.4531 31.1666 51.6576 31.0158 51.8084C30.865 51.9592 30.6605 52.0439 30.4473 52.0439H26.5225C26.3092 52.0439 26.1047 51.9592 25.9539 51.8084C25.8031 51.6576 25.7184 51.4531 25.7184 51.2399V45.6217H31.2483L31.2513 51.2399ZM34.8188 42.0329V42.8451C34.8185 43.1545 34.6955 43.4511 34.4769 43.67C34.2582 43.8889 33.9617 44.0121 33.6523 44.0126H23.3215C23.0119 44.0123 22.7151 43.8892 22.4963 43.6704C22.2774 43.4515 22.1543 43.1547 22.154 42.8451V42.0329C22.1543 41.7233 22.2773 41.4264 22.4962 41.2073C22.715 40.9883 23.0118 40.865 23.3215 40.8644H33.6533C33.9628 40.8652 34.2593 40.9887 34.478 41.2077C34.6966 41.4267 34.8185 41.7235 34.8188 42.0329ZM30.0666 30.5397C30.0666 30.8514 29.9741 31.1561 29.801 31.4152C29.6278 31.6743 29.3816 31.8763 29.0937 31.9955C28.8057 32.1147 28.4889 32.1459 28.1832 32.085C27.8775 32.0241 27.5968 31.8739 27.3765 31.6535C27.1562 31.433 27.0062 31.1522 26.9455 30.8465C26.8848 30.5408 26.9162 30.224 27.0356 29.9361C27.155 29.6482 27.3571 29.4022 27.6163 29.2292C27.8756 29.0562 28.1803 28.9639 28.492 28.9641C28.9097 28.9644 29.3102 29.1305 29.6054 29.426C29.9007 29.7214 30.0666 30.122 30.0666 30.5397Z" fill="#E3E4E6"/>
<path d="M54.7479 31.6117H53.0728C53.1628 31.4587 53.1986 31.2799 53.1743 31.1041C52.3447 25.1391 49.3831 19.6765 44.8372 15.7263C40.2913 11.7762 34.4688 9.60584 28.4465 9.61674C22.4241 9.62764 16.6095 11.819 12.0779 15.7856C7.54638 19.7521 4.60454 25.2255 3.79649 31.1934C3.77763 31.3338 3.79619 31.4767 3.8503 31.6076H2.22495C2.0117 31.6076 1.80719 31.6923 1.6564 31.8431C1.50561 31.9939 1.4209 32.1984 1.4209 32.4117V36.6989C1.4209 36.9121 1.50561 37.1167 1.6564 37.2674C1.80719 37.4182 2.0117 37.5029 2.22495 37.5029H3.81375C3.77589 37.6163 3.76478 37.7369 3.78127 37.8552C4.31683 41.8512 5.8149 45.6574 8.14667 48.9464C8.20691 49.0345 8.2841 49.1098 8.37372 49.1678C8.46335 49.2257 8.56363 49.2653 8.6687 49.2841C8.77378 49.3029 8.88155 49.3006 8.98573 49.2774C9.08991 49.2541 9.18842 49.2103 9.2755 49.1486C9.36258 49.0868 9.4365 49.0084 9.49294 48.9178C9.54938 48.8272 9.58721 48.7262 9.60423 48.6209C9.62124 48.5155 9.61711 48.4078 9.59206 48.304C9.56701 48.2002 9.52155 48.1025 9.45833 48.0165C7.27767 44.9417 5.8755 41.3839 5.3721 37.6481C5.36544 37.6002 5.35457 37.553 5.33961 37.507H6.50914C6.72238 37.507 6.9269 37.4223 7.07768 37.2715C7.22847 37.1207 7.31319 36.9162 7.31319 36.703V32.4157C7.31319 32.2025 7.22847 31.998 7.07768 31.8472C6.9269 31.6964 6.72238 31.6117 6.50914 31.6117H5.32845C5.35568 31.5467 5.37445 31.4784 5.38428 31.4086C6.13964 25.8254 8.89141 20.7046 13.1306 16.9935C17.3698 13.2824 22.8095 11.2321 28.4436 11.2218C34.0777 11.2115 39.5249 13.242 43.7775 16.9376C48.0302 20.6332 50.8007 25.7439 51.5764 31.3244C51.5899 31.4237 51.6223 31.5195 51.6718 31.6066H50.4597C50.2464 31.6066 50.0419 31.6913 49.8911 31.8421C49.7403 31.9929 49.6556 32.1974 49.6556 32.4106V36.6979C49.6556 36.9111 49.7403 37.1156 49.8911 37.2664C50.0419 37.4172 50.2464 37.5019 50.4597 37.5019H51.6373C51.6104 37.567 51.592 37.6352 51.5825 37.705C50.9821 42.1112 49.1341 46.2538 46.2563 49.644C43.3786 53.0342 39.5912 55.5306 35.341 56.8387C31.0909 58.1468 26.5552 58.2119 22.2692 57.0265C17.9832 55.8411 14.1257 53.4545 11.1517 50.1484C11.0834 50.0627 10.9984 49.9919 10.9018 49.9403C10.8051 49.8886 10.699 49.8573 10.5898 49.8482C10.4806 49.839 10.3708 49.8523 10.2669 49.8872C10.163 49.9221 10.0674 49.9778 9.98588 50.0509C9.90433 50.1241 9.8386 50.2132 9.79271 50.3126C9.74682 50.4121 9.72175 50.5199 9.71903 50.6294C9.7163 50.739 9.73599 50.8479 9.77688 50.9495C9.81776 51.0511 9.87899 51.1434 9.9568 51.2205C13.1358 54.7546 17.2592 57.3057 21.8406 58.573C26.4221 59.8403 31.2704 59.7708 35.8136 58.3728C40.3569 56.9748 44.4055 54.3065 47.4819 50.6828C50.5584 47.0591 52.5342 42.6311 53.1764 37.9212C53.1952 37.7808 53.1767 37.6379 53.1226 37.507H54.7469C54.9601 37.507 55.1647 37.4223 55.3154 37.2715C55.4662 37.1207 55.5509 36.9162 55.5509 36.703V32.4198C55.5515 32.3139 55.5311 32.209 55.491 32.1111C55.4509 32.0131 55.3919 31.924 55.3172 31.849C55.2426 31.7739 55.1539 31.7143 55.0562 31.6736C54.9585 31.6328 54.8538 31.6118 54.7479 31.6117ZM5.71321 35.8989H3.03102V33.2198H5.71016L5.71321 35.8989ZM53.9469 35.8989H51.2597V33.2198H53.9388L53.9469 35.8989Z" fill="#E3E4E6"/>
<path d="M3.99117 7.49539C4.74331 7.49561 5.47531 7.25235 6.07773 6.80201C6.68014 6.35166 7.1206 5.71842 7.33325 4.99696H25.1624V6.69338C25.1624 6.90662 25.2471 7.11113 25.3979 7.26192C25.5487 7.41271 25.7532 7.49742 25.9664 7.49742H31.3257C31.539 7.49742 31.7435 7.41271 31.8943 7.26192C32.0451 7.11113 32.1298 6.90662 32.1298 6.69338V4.99696H49.6422C49.8827 5.81599 50.4156 6.51819 51.1396 6.97024C51.8637 7.42229 52.7286 7.59272 53.5701 7.44916C54.4115 7.3056 55.1709 6.85805 55.7042 6.19149C56.2374 5.52492 56.5073 4.68576 56.4627 3.83332C56.418 2.98087 56.0619 2.17451 55.4619 1.56733C54.8619 0.960147 54.0598 0.59442 53.208 0.539587C52.3562 0.484755 51.5138 0.744635 50.8409 1.26989C50.1681 1.79514 49.7115 2.54919 49.5579 3.38887H32.1277V1.33205C32.1272 1.11915 32.0423 0.915159 31.8915 0.764809C31.7408 0.61446 31.5366 0.530029 31.3237 0.530029H25.9644C25.8588 0.530029 25.7543 0.550827 25.6567 0.591234C25.5592 0.631641 25.4705 0.690867 25.3959 0.76553C25.3212 0.840192 25.262 0.928829 25.2216 1.02638C25.1812 1.12393 25.1604 1.22849 25.1604 1.33408V3.38887H7.42461C7.30596 2.73763 7.00419 2.13368 6.55465 1.64777C6.10511 1.16187 5.52642 0.814123 4.88635 0.645266C4.24629 0.476409 3.57137 0.493434 2.94064 0.694349C2.3099 0.895264 1.74948 1.27175 1.32501 1.7797C0.900546 2.28766 0.629612 2.90605 0.543943 3.56244C0.458275 4.21883 0.561419 4.88605 0.841299 5.48593C1.12118 6.08581 1.5662 6.59352 2.12424 6.94959C2.68228 7.30565 3.33023 7.49533 3.99219 7.49641L3.99117 7.49539ZM52.9792 2.13609C53.3502 2.13609 53.713 2.24613 54.0215 2.45227C54.33 2.65842 54.5705 2.95143 54.7125 3.29425C54.8545 3.63706 54.8916 4.01429 54.8192 4.37822C54.7468 4.74214 54.5682 5.07643 54.3058 5.33881C54.0434 5.60119 53.7091 5.77988 53.3452 5.85227C52.9813 5.92466 52.604 5.8875 52.2612 5.7455C51.9184 5.60351 51.6254 5.36304 51.4192 5.05452C51.2131 4.74599 51.1031 4.38326 51.1031 4.0122C51.1031 3.51463 51.3007 3.03743 51.6526 2.68559C52.0044 2.33376 52.4816 2.13609 52.9792 2.13609ZM26.7695 2.13609H30.5257V5.89238H26.7695V2.13609ZM3.99219 2.13609C4.36333 2.13589 4.7262 2.24578 5.03488 2.45185C5.34356 2.65793 5.58418 2.95092 5.72631 3.29378C5.86843 3.63663 5.90567 4.01394 5.83331 4.37797C5.76096 4.74199 5.58225 5.07637 5.31981 5.33881C5.05737 5.60125 4.72299 5.77996 4.35896 5.85231C3.99494 5.92467 3.61763 5.88743 3.27477 5.74531C2.93192 5.60319 2.63892 5.36256 2.43285 5.05388C2.22678 4.7452 2.11689 4.38234 2.11709 4.01119C2.11736 3.51414 2.31486 3.03751 2.66623 2.68595C3.0176 2.33439 3.49514 2.13663 3.99219 2.13609Z" fill="#E3E4E6"/>
</svg>
